<?xml version="1.0" encoding="utf-8"?>
<!-- Generator: Adobe Illustrator 24.1.2, SVG Export Plug-In . SVG Version: 6.00 Build 0)  -->
<svg version="1.1" xmlns="http://www.w3.org/2000/svg" xmlns:xlink="http://www.w3.org/1999/xlink" x="0px" y="0px"
	 viewBox="0 0 349.9 349.9" style="enable-background:new 0 0 349.9 349.9;" xml:space="preserve">
<style type="text/css">
	.st0{fill:#E0FC88;}
	.st1{clip-path:url(#SVGID_2_);}
	.st2{fill:#3C468E;}
	.st3{fill:#2A356B;}
	.st4{fill:#FCD0BE;}
	.st5{fill:#EAB19D;}
	.st6{fill:#FFB0BD;}
	.st7{opacity:0.5;}
	.st8{clip-path:url(#SVGID_4_);}
	.st9{fill:#EA92A2;}
	.st10{opacity:0.2;fill:#FFA4BC;}
	.st11{fill:#C69383;}
	.st12{fill:#D37D8F;}
</style>
<g id="OBJECTS">
	<rect x="-0.2" class="st0" width="350.1" height="350.1"/>
	<g>
		<g>
			<defs>
				<ellipse id="SVGID_1_" cx="176.6" cy="221" rx="171.1" ry="174.1"/>
			</defs>
			<clipPath id="SVGID_2_">
				<use xlink:href="#SVGID_1_"  style="overflow:visible;"/>
			</clipPath>
			<g class="st1">
				<g>
					<g>
						<g>
							<path class="st2" d="M156.7,74.1c-20.4-8.9-36.4,10.5-43.4,33.9c-6,19.3-6.5,40.6-9.9,61.2c-4.5,22-11.9,35.8-21.4,53
								c-16.4,31-27,90.7-21.4,128.7c7.7,51.9,33.8,78.4,60.1,100.5c44.2,37.8,112.8,19.3,145.1-31c20.4-31,34.3-89.4,28.8-130.7
								c-2.5-20.6-9.9-36.5-18.9-53c-9.9-17.9-22.4-28.9-27.3-51.6c-6.5-31,0-67.4-16.9-93.6c-13.4-22-38.9-21-51.9,0.4
								C179.7,91.8,169.6,79.6,156.7,74.1z"/>
						</g>
						<g>
							<path class="st3" d="M130.3,209c-2.1,11.1-7.7,23.4-11.3,34.4c-7.2,22.1-14.4,67.8-3,88.9c12.4,23.7,43.3,20.6,68.7,18.5
								c24.8-2.1,41.4-0.2,53.3-21.3c19-33.7,1.5-121.9-40.9-129.8L130.3,209z"/>
						</g>
						<g>
							<path class="st4" d="M127.5,299.6c6.3-1,20.4-8,24.3-13.5c4.4-5.4,8.7-50.8,8.7-50.8c10.2,2,29.2,3,38.9-1.5
								c1,13.9,0,26.7,2.9,40.1c1,6.9,1.9,11.9,7.3,15.8c4.9,4,12.6,5.9,18,8.9c-6.8,10.9-12.6,23.3-21.9,31.7
								c-8.3,7.9-18,14.8-24.8,23.3L127.5,299.6z"/>
						</g>
						<g>
							<path class="st5" d="M156.6,241.1c0.4,11.1,11.3,34.2,22.1,38.4c12,4.2,23.3-31.3,23.3-39.7h-2.3L156.6,241.1z"/>
						</g>
					</g>
					<g>
						<g>
							<path class="st4" d="M78.7,359.6c9.6-1.7,26.4,25.2,37.7,24.6c1.7,12,1.1,37.8,1.1,37.8c-11.3,2.3-28.1,1.1-40,0.6
								C76.9,422.4,78.7,359.6,78.7,359.6z"/>
						</g>
						<g>
							<path class="st4" d="M282.1,358.5c-9.6-1.7-26.4,26.3-37.7,25.8c-1.7,12-1.1,37.8-1.1,37.8c11.3,2.3,28.1,1.1,40,0.6
								C283.9,422.4,282.1,358.5,282.1,358.5z"/>
						</g>
					</g>
					<g>
						<path class="st6" d="M289.7,363.1c0,0-8.4-32.9-11-38.4c-3.4-7.2-9.3-9.1-16-12.6c-13.5-6.9-37.7-18.3-37.7-18.3
							c-7.1,4.7-44.6,55.6-44.6,55.6c-1,1.7-37.5-50.9-44.6-55.6c0,0-24.2,11.5-37.7,18.3c-6.8,3.4-12.7,5.4-16,12.6
							c-2.5,5.4-11,36.1-11,36.1c0.7,0.7,14.1,18.4,33.7,22.5c-1,3.1-1.7,6.2-1.9,9.3c-0.8,11.2,3.1,28.9,12.7,35.8
							c0,0,32.2-0.6,54.6-0.6l0,0c0,0,4.1,0,10.3,0c6.2,0,10.3,0,10.3,0l0,0c22.4,0,54.5,0.4,54.6,0.6c9.6-6.9,15.3-24.6,14.5-35.8
							c-0.2-3.2-0.9-6.4-2-9.5C276.4,378.8,289,363.8,289.7,363.1z"/>
					</g>
					<g class="st7">
						<defs>
							<path id="SVGID_3_" class="st7" d="M289.7,363.1c0,0-8.4-32.9-11-38.4c-3.4-7.2-9.3-9.1-16-12.6
								c-13.5-6.9-37.7-18.3-37.7-18.3c-7.1,4.7-44.6,55.6-44.6,55.6c-1,1.7-37.5-50.9-44.6-55.6c0,0-24.2,11.5-37.7,18.3
								c-6.8,3.4-12.7,5.4-16,12.6c-2.5,5.4-11,36.1-11,36.1c0.7,0.7,14.1,18.4,33.7,22.5c-1,3.1-1.7,6.2-1.9,9.3
								c-0.8,11.2,3.1,28.9,12.7,35.8c0,0,32.2-0.6,54.6-0.6l0,0c0,0,4.1,0,10.3,0c6.2,0,10.3,0,10.3,0l0,0
								c22.4,0,54.5,0.4,54.6,0.6c9.6-6.9,15.3-24.6,14.5-35.8c-0.2-3.2-0.9-6.4-2-9.5C276.4,378.8,289,363.8,289.7,363.1z"/>
						</defs>
						<clipPath id="SVGID_4_">
							<use xlink:href="#SVGID_3_"  style="overflow:visible;"/>
						</clipPath>
						<g class="st8">
							<rect x="61.8" y="302.6" class="st9" width="236.3" height="16"/>
							<rect x="61.8" y="331.8" class="st9" width="236.3" height="16"/>
							<rect x="61.8" y="361" class="st9" width="236.3" height="16"/>
							<rect x="61.8" y="390.2" class="st9" width="236.3" height="16"/>
							<rect x="61.8" y="419.4" class="st9" width="236.3" height="16"/>
						</g>
					</g>
					<g>
						<g>
							<g>
								<path class="st5" d="M129.9,185.2c-7.9-3.2-18.9,0.3-20.3,10c-2,13.2,7.9,28.6,21.7,26.9c4.8-0.6,8.2-3.1,12.4-5.2
									L129.9,185.2z"/>
							</g>
							<g>
								<path class="st5" d="M222.2,185.2c7.9-3.2,18.9,0.3,20.3,10c2,13.2-7.9,28.6-21.7,26.9c-4.8-0.6-8.2-3.1-12.4-5.2
									L222.2,185.2z"/>
							</g>
						</g>
						<g>
							<g>
								<path class="st3" d="M166,127.5c3.4,0.6,6.8,1.4,9.8,2.6c4.5,1.7,4.2,1.1,8.4-0.9c7.9-4,18-6,26.7-6c5,0,9.6,0.3,14.1,1.3
									c-1.6-4.2-3.9-7.9-7.1-10.8c-14.3-13.7-35.3-17.6-54.4-14.1c-10.9,1.9-21.4,6.9-28.1,16.4c-2.7,4-4.5,7.7-6,11.8
									C140.6,124.7,155.6,125.7,166,127.5z"/>
							</g>
							<g>
								<path class="st4" d="M211,123.2c-8.7,0-18.9,2-26.7,6c-4.2,2-3.9,2.6-8.4,0.9c-3.1-1.1-6.5-2-9.8-2.6
									c-10.4-1.8-25.4-2.9-36.5,0.2c-1.4,3.7-2.5,7.7-3.7,12.3c-4.9,18.3,10.5,77.9,12.4,87.8c2.3,10.7,5.3,12.2,13.1,18.3
									c8.2,6.4,21.4,14.9,30.8,15.7c0,0,25.1-15.7,28.9-20.2c5.3-5.7,14.3-49.3,15.8-65.3c1.5-14.7,4.5-36.5-1.5-51.8
									C220.6,123.5,216,123.2,211,123.2z"/>
							</g>
						</g>
						<path class="st10" d="M155.8,205.7c0,2.1-4,3.9-9,3.9c-5,0-9-1.7-9-3.9c0-2.1,4-3.9,9-3.9
							C151.8,201.8,155.8,203.5,155.8,205.7z"/>
						<path class="st10" d="M218,205.7c0,2.1-4,3.9-9,3.9c-5,0-9-1.7-9-3.9c0-2.1,4-3.9,9-3.9C214,201.8,218,203.5,218,205.7z"/>
						<g>
							<g>
								<path d="M157.2,184.9c0,4.3-1.7,7.7-3.8,7.7c-2.1,0-3.8-3.5-3.8-7.7c0-4.3,1.7-7.7,3.8-7.7
									C155.5,177.2,157.2,180.6,157.2,184.9z"/>
								<path d="M206.4,184.9c0,4.3-1.7,7.7-3.8,7.7c-2.1,0-3.8-3.5-3.8-7.7c0-4.3,1.7-7.7,3.8-7.7
									C204.7,177.2,206.4,180.6,206.4,184.9z"/>
							</g>
							<g>
								<path class="st11" d="M180.4,185.9c-0.9,3-1.1,6.3-0.1,9.2c0.5,1.4,1.3,2.8,2.3,3.9c1,1.1,2.2,2.2,3.3,3.3
									c1.1,1.2,2.3,2.5,2.6,4.4c0.1,0.9-0.1,1.9-0.5,2.7c-0.4,0.8-0.9,1.5-1.6,2.1c-1.3,1.1-2.8,1.8-4.4,2.2
									c-0.8,0.2-1.6,0.2-2.5,0.2c-0.8-0.1-1.6-0.3-2.3-0.7c1.5,0.5,3.1,0.3,4.6-0.2c0.7-0.2,1.4-0.6,2.1-1
									c0.6-0.4,1.3-0.8,1.8-1.4c0.5-0.5,0.9-1.1,1.2-1.8c0.3-0.7,0.4-1.3,0.3-2c-0.2-1.3-1.2-2.5-2.3-3.6
									c-1.1-1.1-2.3-2.2-3.3-3.5c-1.1-1.3-1.9-2.8-2.3-4.4c-0.4-1.6-0.5-3.3-0.3-4.9C179.2,188.9,179.7,187.4,180.4,185.9z"/>
							</g>
							<g>
								<path class="st11" d="M163.4,227c1.8,2.8,3.8,5.6,6.5,7.3c1.3,0.8,2.8,1.4,4.4,1.8c1.6,0.3,3.2,0.5,4.8,0.5
									c3.2,0,6.4-1,9-2.9c2.6-1.9,4.5-4.7,5.7-7.8c-0.3,1.6-0.9,3.2-1.7,4.8c-0.8,1.5-2,2.9-3.3,4c-2.7,2.3-6.2,3.4-9.7,3.5
									c-1.7,0-3.4-0.2-5.1-0.6c-1.7-0.4-3.4-1.1-4.8-2.2c-1.4-1.1-2.5-2.4-3.5-3.8C164.8,230.1,164.1,228.6,163.4,227z"/>
							</g>
							<g>
								<g>
									<path class="st3" d="M146.1,165.5c-0.6-3.1,0.3-6.4,2.4-8.9c1-1.2,2.3-2.3,3.8-2.9c1.5-0.7,3.1-0.9,4.6-0.7
										c-3.1,0.4-5.8,1.9-7.7,4.2C147.4,159.5,146.3,162.4,146.1,165.5z"/>
								</g>
								<g>
									<path class="st3" d="M199.2,150.1c1.8-0.3,3.7-0.1,5.4,0.8c1.7,0.8,3.1,2.2,4.1,3.7c2.1,3.1,2.8,6.9,2.4,10.5
										c-0.1-1.8-0.5-3.5-1-5.2c-0.5-1.7-1.2-3.3-2.2-4.7c-1-1.4-2.2-2.7-3.7-3.6C202.8,150.7,201,150.2,199.2,150.1z"/>
								</g>
							</g>
						</g>
					</g>
					<g>
						<g>
							<path class="st12" d="M102.9,399.1c-0.2-3.9,0-7.8,0.5-11.7c0.5-3.9,1.4-7.7,2.5-11.5c1.2-3.7,2.6-7.4,4.4-10.9
								c0.9-1.7,1.8-3.5,2.9-5.1c0.5-0.8,1.1-1.6,1.6-2.5c0.6-0.8,1.1-1.6,1.7-2.4l-1.5,2.5c-0.5,0.9-1,1.7-1.4,2.6
								c-0.9,1.7-1.8,3.4-2.6,5.2c-1.6,3.5-3,7.1-4.1,10.8c-1.2,3.7-2.1,7.5-2.7,11.3C103.5,391.3,103.1,395.2,102.9,399.1z"/>
						</g>
						<g>
							<path class="st12" d="M104.9,367.8c-0.4-3.6-0.3-7.2,0.2-10.8c0.6-3.6,1.8-7.1,3.9-10.1c-1.4,3.3-2.4,6.7-2.9,10.2
								C105.6,360.7,105.3,364.2,104.9,367.8z"/>
						</g>
						<g>
							<path class="st12" d="M259.7,398c-0.2-3.5-0.7-7-1.5-10.5c-0.8-3.4-1.8-6.8-3.1-10c-1.3-3.3-2.8-6.4-4.6-9.5l-1.4-2.3
								l-1.5-2.2l-1.5-2.2l-1.6-2.1c0.6,0.6,1.2,1.3,1.8,1.9l1.7,2l1.6,2.1l1.5,2.2c1.9,3,3.5,6.2,4.9,9.5c1.3,3.3,2.3,6.8,2.9,10.3
								C259.6,390.9,259.9,394.5,259.7,398z"/>
						</g>
						<g>
							<path class="st12" d="M253.9,365.7c0.1-3.4,0-6.7-0.6-10c-0.3-1.6-0.6-3.3-1.1-4.8c-0.5-1.6-1.2-3.1-2-4.6
								c1.2,1.2,2.1,2.7,2.8,4.3c0.7,1.6,1.1,3.3,1.4,4.9C254.8,359,254.8,362.4,253.9,365.7z"/>
						</g>
					</g>
				</g>
				<g>
					<path class="st2" d="M179.8,131.2c0.3-8-3.7-19.5-9.6-24.9c-13.8-12.9-23.4,9.7-26.7,20c-4.5,14.9-2.5,32.6-2.5,48.1
						c0,35.9-15.8,50.9-21.8,53.8c-7,3.4-10-0.2-13.1-6.5c-3.4-7.4-3.9-19.2-3.1-27.2c1.1-9.2,2.5-19.2,4.2-28.4
						c1.7-9.5,3.4-19.2,5.3-28.4c2-9.5,7.9-18,12.4-26.6c7.6-13.5,22.8-28.1,39.7-24.3c6.5,1.4,14.1,8.9,16,14.9L179.8,131.2z"/>
				</g>
				<g>
					<path class="st2" d="M179.5,131.2c3.1-8.6,7.6-26.3,20.5-20.9c11.8,4.9,12.4,30.6,14.3,41.2c3.1,16.6,3.4,33.2,5.9,50.1
						c1.1,8,3.1,18,9.6,23.8c5.1,4.6,15.2,6,20.3,0.9c5.6-5.2,4.2-16.6,3.1-23.5c-1.7-9.5-6.2-17.2-9.6-26.1
						c-3.1-8-5.9-16.3-7.3-24.9c-1.1-8.3-0.3-16.6-1.7-24.9c-3.4-16.9-16.6-31.2-33.8-32.4c-11.8-0.9-24.6-4.3-24.3,10L179.5,131.2z
						"/>
				</g>
			</g>
		</g>
	</g>
</g>
<g id="BACKGROUND">
</g>
</svg>
