<?xml version="1.0" encoding="utf-8"?>
<!-- Generator: Adobe Illustrator 24.1.2, SVG Export Plug-In . SVG Version: 6.00 Build 0)  -->
<svg version="1.1" id="_x3C_Layer_x3E_" xmlns="http://www.w3.org/2000/svg" xmlns:xlink="http://www.w3.org/1999/xlink" x="0px"
	 y="0px" viewBox="0 0 1920 500" style="enable-background:new 0 0 1920 500;" xml:space="preserve">
<style type="text/css">
	.st0{fill:url(#SVGID_1_);}
	.st1{clip-path:url(#SVGID_3_);}
	.st2{fill:#72D3B3;}
	.st3{fill:#E1FFF2;}
	.st4{fill:#6BDBAD;}
	.st5{fill:#00AF8D;}
	.st6{fill:#117C93;}
	.st7{fill:#5AE4A7;}
	.st8{opacity:0.7;fill:#FFFFFF;}
	.st9{opacity:0.2;}
	.st10{fill:none;stroke:#1A2E35;stroke-linecap:round;stroke-miterlimit:10;}
	.st11{fill:none;stroke:#1A2E35;stroke-miterlimit:10;}
	.st12{fill:none;stroke:#1A2E35;stroke-width:2;stroke-linecap:round;stroke-miterlimit:10;}
	.st13{opacity:0.3;fill:#1A2E35;}
	.st14{opacity:0.2;fill:#1A2E35;}
	.st15{fill:#1A2E35;stroke:#1A2E35;stroke-width:2;stroke-linecap:round;stroke-miterlimit:10;}
	.st16{fill:#1A2E35;}
	.st17{fill:#FFFFFF;stroke:#1A2E35;stroke-miterlimit:10;}
	.st18{fill:#5AE4A7;stroke:#1A2E35;stroke-miterlimit:10;}
	.st19{fill:#1A2E35;stroke:#1A2E35;stroke-miterlimit:10;}
	.st20{fill:#D4D4D4;stroke:#1A2E35;stroke-miterlimit:10;}
</style>
<g>
	<linearGradient id="SVGID_1_" gradientUnits="userSpaceOnUse" x1="960" y1="2676.625" x2="960" y2="-9.094947e-13">
		<stop  offset="0" style="stop-color:#FDE2B9"/>
		<stop  offset="0.204" style="stop-color:#F7E4BB"/>
		<stop  offset="0.4766" style="stop-color:#E6E9C2"/>
		<stop  offset="0.7867" style="stop-color:#CAF0CE"/>
		<stop  offset="1" style="stop-color:#B3F7D7"/>
	</linearGradient>
	<rect class="st0" width="1920" height="2676.6"/>
	<g>
		<defs>
			<rect id="SVGID_2_" x="0" y="0.9" width="1920" height="2736"/>
		</defs>
		<clipPath id="SVGID_3_">
			<use xlink:href="#SVGID_2_"  style="overflow:visible;"/>
		</clipPath>
		<g class="st1">
			<path class="st2" d="M16.2-38.8c0,0-43.3,51.1-27.8,114.9c15.5,63.8,68.5,97.4,68.5,97.4S82.5,97,60.6,57.3
				C38.7,17.5,30.8-43.2,30.8-43.2L16.2-38.8z"/>
			<path class="st2" d="M19.7-35.9c0,0,10.6,62.4,64.6,86.5c54,24.1,108.7,2.1,108.7,2.1s-38.9-63.1-79.7-68.6
				c-40.8-5.5-88.2-33.8-88.2-33.8L19.7-35.9z"/>
			<path class="st2" d="M1922.9-7.5c0,0-44.4-17-83.6,8.2C1800.1,26,1790,69.4,1790,69.4s57.3-0.7,78.8-24.7
				c21.5-24,60.4-43.4,60.4-43.4L1922.9-7.5z"/>
			<path class="st2" d="M1921.8-4.5c0,0-39.4,21.7-42.9,63.5c-3.6,41.8,24,73.2,24,73.2s33.2-40.8,27.4-69.4
				c-5.9-28.6,2.1-66.9,2.1-66.9L1921.8-4.5z"/>
			<path class="st2" d="M686.4-62.9c0,0-70.6,6.6-102.1,64.7c-31.5,58.1-11.5,121-11.5,121s73.7-38,83.3-83
				c9.6-45,45.2-95.4,45.2-95.4L686.4-62.9z"/>
			<path class="st2" d="M1531.8-24.8c0,0,8.9,52.2,54.1,72.4c45.2,20.2,90.9,1.7,90.9,1.7S1644.2-3.4,1610.1-8
				c-34.1-4.6-73.8-28.3-73.8-28.3L1531.8-24.8z"/>
			<path class="st2" d="M1541-52.5c0,0-70.6,6.6-102.1,64.7c-31.5,58.1-11.5,121-11.5,121s73.7-38,83.3-83
				c9.6-45,45.2-95.4,45.2-95.4L1541-52.5z"/>
			<path class="st2" d="M668.2-44c0,0-10.5,51.8,24.3,86.7c34.8,35,83.9,34.2,83.9,34.2s-11.3-60.7-41.4-77.3
				c-30.1-16.5-58.5-52.7-58.5-52.7L668.2-44z"/>
			<path class="st2" d="M390.3-16.2c0,0-24.8,9.6-30.2,33.7c-5.4,24.2,8.2,44.7,8.2,44.7s22.7-21.2,21.5-38.4
				c-1.2-17.2,6.5-39,6.5-39L390.3-16.2z"/>
			<path class="st2" d="M121.1,202.7c0,0-10.2,22.5,2.1,37.8c12.3,15.3,34.9,15,34.9,15s1.1-26.5-10.9-33.7
				c-12.1-7.2-21.3-23-21.3-23L121.1,202.7z"/>
			<path class="st2" d="M1736.7,272.3c0,0-26.2,4.1-36.7,26.5c-10.4,22.4-1.5,45.5-1.5,45.5s26.7-15.9,29.2-32.9
				c2.6-17,14.7-36.7,14.7-36.7L1736.7,272.3z"/>
			<path class="st2" d="M1829.1,180c0,0-14.6,18.1-8.2,38.8c6.5,20.7,25.8,30.4,25.8,30.4s7.9-26-0.4-38.6
				c-8.4-12.6-12.1-32.5-12.1-32.5L1829.1,180z"/>
			<path class="st2" d="M392.3-11.5c0,0-6.6,25.7,10,44.1C418.8,51.1,443.5,52,443.5,52s-4.1-30.8-18.8-39.8c-14.7-9.1-28-28-28-28
				L392.3-11.5z"/>
			<path class="st2" d="M1290.6-17.5c0,0-6.6,25.7,10,44.1c16.5,18.4,41.2,19.3,41.2,19.3s-4.1-30.8-18.8-39.8
				c-14.7-9.1-28-28-28-28L1290.6-17.5z"/>
			<path class="st2" d="M1248.4,30.3c0,0,20.8,2.5,33.5-12.2c12.7-14.8,10.9-34.1,10.9-34.1s-23.6,6.3-29.2,18.7
				c-5.6,12.4-19,24.7-19,24.7L1248.4,30.3z"/>
			<path class="st2" d="M908.8,26.3c0,0,20.8,2.5,33.5-12.2c12.7-14.8,10.9-34.1,10.9-34.1S929.6-13.8,924-1.4
				c-5.6,12.4-19,24.7-19,24.7L908.8,26.3z"/>
			<path class="st2" d="M1054.8-34.7c0,0-9.3,36.4,14.1,62.5c23.4,26.1,58.5,27.4,58.5,27.4s-5.8-43.6-26.6-56.4
				c-20.8-12.8-39.7-39.6-39.7-39.6L1054.8-34.7z"/>
			<path class="st2" d="M-34.8,218.4c0,0-20.6,44.7,3.3,83.8c24,39.1,68.7,49,68.7,49s2.8-57.5-20.9-78.9
				c-23.7-21.4-41.6-60.4-41.6-60.4L-34.8,218.4z"/>
		</g>
	</g>
</g>
<g>
	<path class="st3" d="M1480.2,408c0,0,30.4,8.3,45.4-29.2c19.4-48.7-7.8-94.9-54.9-98.3c-67.8-4.8-30.2-129.2-137.3-95.4
		c-30.1,9.5-95.5-39.5-134.1,43.5c-6.6,14.1-26.1,13.4-52.2,37.5c-46,42.5-29.5,142.4,9.3,142.9C1195.3,409.3,1480.2,408,1480.2,408
		z"/>
	<path class="st4" d="M1139,408.7c0,0,1.6-10.6,22.3-13.5c20.7-2.9,40-25.8,74.2-22.5c34.2,3.3,62.5,24.2,101.4,17.8
		c38.9-6.4,63.2,1.8,72,8.2c8.7,6.4,44.8-1.5,47.5,10.3L1139,408.7z"/>
	<g>
		<g>
			<path class="st5" d="M1240.1,340.4c0,0-10.8-12.6-0.7-20.7c0,0,7.4-4.5,13.5-4.1c0,0-8.6,14.4-5.8,15.8
				c2.8,1.4,8.4-16.7,8.4-16.7s16.9-1.6,22.3,1c0,0-14.4,11.8-11.4,12.5c3,0.7,18.6-10.9,18.6-10.9s15.7,2.7,14.9,12.3
				c-0.8,9.6-6.3,12.6-8.6,12.3c-2.4-0.3-16.3-5.6-16.6-3.6c-0.3,2,8.1,8.3,14,8.6c0,0-11.1,12.2-18.5,8.7c-7.4-3.5-8-9.1-12.6-11.2
				c-4.6-2.1-8.5-2.1-6.6,0c1.9,2.1,10.2,4.2,12.8,8.9c2.6,4.6,5,7.8-2.6,6.6c-7.6-1.1-20-6.7-20.6-13.1
				C1240.1,340.4,1240.1,340.4,1240.1,340.4z"/>
			<g>
				<path class="st5" d="M1292.3,329.9c0,0-42.7-1.6-52.2,10.6c0,0-2.1,6.2-8.5,11.9l-1,2.7c0,0,7.4-7.8,10.1-8.3
					C1240.6,346.8,1236.5,331.7,1292.3,329.9z"/>
				<path class="st5" d="M1231.6,352.4c0,0-9.2,6.8-9.8,18.9l1.7,0.1c0,0,2.9-12.5,8.2-17.4C1237,349.1,1231.6,352.4,1231.6,352.4z"
					/>
			</g>
		</g>
		<g>
			<path class="st4" d="M1202.2,324.5c0,0,17.2-9.7,9.2-22.8c0,0-6.4-8-13.3-10.1c0,0,3.7,19.5,0,20c-3.7,0.5-2.5-22.1-2.5-22.1
				s-18.2-8.7-25.3-8c0,0,11.3,19.1,7.6,18.6c-3.7-0.5-16.3-19.8-16.3-19.8s-18.6-3.4-21.6,7.6c-3,11,1.8,16.5,4.6,17.2
				c2.8,0.7,20.5,0.5,20,2.8c-0.5,2.3-12.4,6-19.1,3.9c0,0,7.4,18.2,17,17.2c9.7-0.9,12.6-6.9,18.6-7.4c6-0.5,10.3,1.1,7.4,2.8
				c-3,1.6-13.1,0.5-17.9,4.6c-4.8,4.1-8.7,6.6,0.2,8.5c9,1.8,25,0.7,28.3-6.2C1202.2,324.5,1202.2,324.5,1202.2,324.5z"/>
			<g>
				<path class="st4" d="M1148.4,291.5c0,0,48.3,15.6,53.8,33.1c0,0-0.2,7.8,4.6,16.8v3.4c0,0-5.1-11.7-7.8-13.3
					C1199,331.4,1209.8,316.3,1148.4,291.5z"/>
				<path class="st4" d="M1206.8,341.3c0,0,7.4,11.3,3.2,25.1l-1.9-0.5c0,0,1.9-15.2-2-22.8C1202.2,335.5,1206.8,341.3,1206.8,341.3
					z"/>
			</g>
		</g>
		<g>
			<path class="st5" d="M1229.6,311.2c0,0-22.7-12.7-12.1-30c0,0,8.5-10.6,17.6-13.3c0,0-4.8,25.7,0,26.4c4.8,0.6,3.3-29.1,3.3-29.1
				s23.9-11.5,33.3-10.6c0,0-14.8,25.1-10,24.5c4.8-0.6,21.5-26.1,21.5-26.1s24.5-4.5,28.5,10c3.9,14.5-2.4,21.8-6.1,22.7
				c-3.6,0.9-27,0.6-26.4,3.6c0.6,3,16.4,7.9,25.1,5.1c0,0-9.7,23.9-22.4,22.7c-12.7-1.2-16.7-9.1-24.5-9.7
				c-7.9-0.6-13.6,1.5-9.7,3.6c3.9,2.1,17.3,0.7,23.6,6.1c6.4,5.4,11.5,8.7-0.3,11.2c-11.8,2.4-33,0.9-37.3-8.2
				C1229.6,311.2,1229.6,311.2,1229.6,311.2z"/>
			<g>
				<path class="st4" d="M1300.5,267.6c0,0-63.6,20.6-70.9,43.6c0,0,0.3,10.3-6.1,22.1v4.5c0,0,6.7-15.4,10.3-17.6
					C1233.9,320.3,1219.6,300.3,1300.5,267.6z"/>
				<path class="st4" d="M1223.6,333.3c0,0-9.8,14.9-4.2,33l2.5-0.7c0,0-2.5-20,2.7-30C1229.7,325.6,1223.6,333.3,1223.6,333.3z"/>
			</g>
		</g>
		<path class="st5" d="M1228.9,405.7c24.6,0,44.5-19.9,44.5-44.5h-89C1184.4,385.8,1204.3,405.7,1228.9,405.7z"/>
		<path class="st4" d="M1239.8,405.4c-1.8,0.2-3.7,0.3-5.5,0.3c-24.6,0-44.5-19.9-44.5-44.5h11.1
			C1200.9,383.9,1217.9,402.6,1239.8,405.4z"/>
		<path class="st5" d="M1274,408h-90.2l0,0c0-3,2.5-5.5,5.5-5.5h79.3C1271.5,402.5,1274,404.9,1274,408L1274,408z"/>
		<rect x="1182.9" y="361.2" class="st4" width="91.5" height="1.4"/>
	</g>
	<g>
		<path class="st5" d="M1389.9,192c0,0-7.8-14.7,3.9-20.3c0,0,8.2-2.8,14.1-1.1c0,0-11.5,12.2-9.1,14.2c2.4,2,11.9-14.5,11.9-14.5
			s16.8,2.1,21.6,5.9c0,0-16.7,8.4-13.9,9.7c2.8,1.4,20.6-6.5,20.6-6.5s14.8,6.1,11.8,15.2c-2.9,9.2-8.9,10.9-11.1,10.1
			c-2.3-0.8-14.7-9-15.4-7.2c-0.7,1.8,6.1,9.9,11.7,11.5c0,0-13.5,9.5-19.9,4.4c-6.4-5.1-5.8-10.7-9.8-13.7c-4-3.1-7.8-3.9-6.5-1.4
			c1.4,2.5,9,6.4,10.6,11.5c1.5,5.1,3.2,8.7-4,5.9c-7.2-2.8-18.1-11-17.2-17.3C1389.9,192,1389.9,192,1389.9,192z"/>
		<g>
			<path class="st5" d="M1443.1,193.1c0,0-41.3-11-53.2-1.1c0,0-3.4,5.6-10.9,9.8l-1.6,2.4c0,0,8.9-6,11.6-5.9
				C1389,198.3,1388.3,182.7,1443.1,193.1z"/>
			<path class="st5" d="M1379,201.8c0,0-10.4,4.6-13.7,16.3l1.6,0.5c0,0,5.6-11.6,11.8-15.2C1385,199.7,1379,201.8,1379,201.8z"/>
		</g>
	</g>
	<g>
		<path class="st5" d="M1338.6,165.5c0,0-23.1-12-13-29.6c0,0,8.2-10.9,17.2-13.8c0,0-4.1,25.9,0.8,26.3c4.9,0.5,2.5-29.2,2.5-29.2
			s23.6-12.2,33-11.6c0,0-14.1,25.6-9.3,24.8c4.8-0.7,20.7-26.7,20.7-26.7s24.4-5.3,28.8,9.1c4.4,14.4-1.8,21.9-5.4,22.9
			c-3.6,1-26.9,1.4-26.2,4.4c0.7,3,16.6,7.4,25.3,4.4c0,0-9,24.2-21.7,23.4c-12.8-0.8-16.9-8.6-24.8-9c-7.9-0.4-13.6,1.9-9.6,3.9
			c4,2,17.3,0.2,23.8,5.4c6.5,5.2,11.8,8.4,0,11.2c-11.7,2.8-33,1.9-37.5-7.1C1338.6,165.5,1338.6,165.5,1338.6,165.5z"/>
		<g>
			<path class="st4" d="M1408.1,119.7c0,0-63,22.5-69.6,45.7c0,0,0.6,10.3-5.4,22.3l0.1,4.5c0,0,6.2-15.6,9.8-17.9
				C1343.1,174.4,1328.3,154.9,1408.1,119.7z"/>
			<path class="st4" d="M1333.2,187.7c0,0-9.4,15.2-3.2,33.1l2.5-0.8c0,0-3-19.9,1.8-30.1C1339.1,179.9,1333.2,187.7,1333.2,187.7z"
				/>
		</g>
	</g>
	<path class="st5" d="M1502.6,408h-32.1c-1.7-1.5,1.2-4.8,4.2-5c1.3-0.1,3,0.2,4.9,0.6c0.4-5.9,3-32.2,12.5-31.2
		c10.7,1.2,0,11.6-3,17.8c-2.2,4.6-4.6,11.1-5.7,14.2c0.9,0.2,1.8,0.4,2.7,0.5c1.4-4.3,6.7-19,13.4-18.1c7.9,1,4.7,6.9-0.9,10.3
		c-4.1,2.6-9.1,6.2-11.5,8c2,0.3,4.1,0.6,6.3,0.5C1498.9,405.5,1501.6,407.1,1502.6,408z"/>
	<path class="st4" d="M1182.9,394.1c0,0-16.1-41.3-27.5-34.8C1144.1,366,1182.9,394.1,1182.9,394.1z"/>
	<path class="st4" d="M1174.9,394.1c0,0-21.3-18.4-31.1-15C1134.1,382.6,1174.9,394.1,1174.9,394.1z"/>
	<path class="st4" d="M1400.8,400.1c0,0,4.9-17.1,10.7-15.1C1417.2,387,1400.8,400.1,1400.8,400.1z"/>
	<path class="st4" d="M1405.3,399.2c0,0,12.5-8.2,15.3-5.7C1423.4,396,1405.3,399.2,1405.3,399.2z"/>
	<path class="st6" d="M1526.1,409H1127c-0.3,0-0.5-0.2-0.5-0.5l0,0c0-0.3,0.2-0.5,0.5-0.5h399.2c0.3,0,0.5,0.2,0.5,0.5v0
		C1526.7,408.8,1526.4,409,1526.1,409z"/>
</g>
<g>
	<path class="st7" d="M773.1,199.9c-3.8-6.2-8.1-12.1-12.8-17.7c-26.1-30.7-62.1-58.3-103.3-59.2c-68-1.5-120.4,69.7-135.3,105.7
		c-15,36-63.5,98.1-48.6,137.1c15,39.1,106.2,84.3,170.4,91.9c64.3,7.7,106.2-16.9,132.3-53.6c18.4-25.9,23-62.8,23.6-93.9
		C800.1,272,793,232.4,773.1,199.9z"/>
	<path class="st8" d="M773.1,199.9c-3.8-6.2-8.1-12.1-12.8-17.7c-26.1-30.7-62.1-58.3-103.3-59.2c-68-1.5-120.4,69.7-135.3,105.7
		c-15,36-63.5,98.1-48.6,137.1c15,39.1,106.2,84.3,170.4,91.9c64.3,7.7,106.2-16.9,132.3-53.6c18.4-25.9,23-62.8,23.6-93.9
		C800.1,272,793,232.4,773.1,199.9z"/>
</g>
<g>
	<g class="st9">
		<rect x="597.1" y="133.7" class="st10" width="100.5" height="282.8"/>
		<polyline class="st10" points="597.6,142.3 697.4,142.3 695,134.5 		"/>
		<polyline class="st10" points="597.6,151.7 697.4,151.7 695,144 		"/>
		<polyline class="st10" points="597.6,161.2 697.4,161.2 695,153.4 		"/>
		<polyline class="st10" points="597.6,170.6 697.4,170.6 695,162.8 		"/>
		<polyline class="st10" points="597.6,180 697.4,180 695,172.2 		"/>
		<polyline class="st10" points="597.6,189.4 697.4,189.4 695,181.6 		"/>
		<polyline class="st10" points="597.6,198.8 697.4,198.8 695,191 		"/>
		<polyline class="st10" points="597.6,208.2 697.4,208.2 695,200.5 		"/>
		<polyline class="st10" points="597.6,217.6 697.4,217.6 695,209.9 		"/>
		<polyline class="st10" points="597.6,227.1 697.4,227.1 695,219.3 		"/>
		<polyline class="st10" points="597.6,236.5 697.4,236.5 695,228.7 		"/>
		<polyline class="st10" points="597.6,245.9 697.4,245.9 695,238.1 		"/>
		<polyline class="st10" points="597.6,255.3 697.4,255.3 695,247.5 		"/>
		<polyline class="st10" points="597.6,264.7 697.4,264.7 695,256.9 		"/>
		<polyline class="st10" points="597.6,274.1 697.4,274.1 695,266.4 		"/>
		<polyline class="st10" points="597.6,283.6 697.4,283.6 695,275.8 		"/>
		<polyline class="st10" points="597.6,293 697.4,293 695,285.2 		"/>
		<polyline class="st10" points="597.6,302.4 697.4,302.4 695,294.6 		"/>
		<polyline class="st10" points="597.6,311.8 697.4,311.8 695,304 		"/>
		<polyline class="st10" points="597.6,321.2 697.4,321.2 695,313.4 		"/>
		<polyline class="st10" points="597.6,330.6 697.4,330.6 695,322.9 		"/>
		<polyline class="st10" points="597.6,340 697.4,340 695,332.3 		"/>
		<polyline class="st10" points="597.6,349.5 697.4,349.5 695,341.7 		"/>
		<polyline class="st10" points="597.6,358.9 697.4,358.9 695,351.1 		"/>
		<polyline class="st10" points="597.6,368.3 697.4,368.3 695,360.5 		"/>
		<polyline class="st10" points="597.6,377.7 697.4,377.7 695,369.9 		"/>
		<polyline class="st10" points="597.6,387.1 697.4,387.1 695,379.4 		"/>
		<polyline class="st10" points="597.6,396.5 697.4,396.5 695,388.8 		"/>
		<polyline class="st10" points="597.6,406 697.4,406 695,398.2 		"/>
	</g>
	<g class="st9">
		<rect x="705.1" y="133.7" class="st10" width="100.5" height="282.8"/>
		<polyline class="st10" points="705.7,142.3 805.5,142.3 803.1,134.5 		"/>
		<polyline class="st10" points="705.7,151.7 805.5,151.7 803.1,144 		"/>
		<polyline class="st10" points="705.7,161.2 805.5,161.2 803.1,153.4 		"/>
		<polyline class="st10" points="705.7,170.6 805.5,170.6 803.1,162.8 		"/>
		<polyline class="st10" points="705.7,180 805.5,180 803.1,172.2 		"/>
		<polyline class="st10" points="705.7,189.4 805.5,189.4 803.1,181.6 		"/>
		<polyline class="st10" points="705.7,198.8 805.5,198.8 803.1,191 		"/>
		<polyline class="st10" points="705.7,208.2 805.5,208.2 803.1,200.5 		"/>
		<polyline class="st10" points="705.7,217.6 805.5,217.6 803.1,209.9 		"/>
		<polyline class="st10" points="705.7,227.1 805.5,227.1 803.1,219.3 		"/>
		<polyline class="st10" points="705.7,236.5 805.5,236.5 803.1,228.7 		"/>
		<polyline class="st10" points="705.7,245.9 805.5,245.9 803.1,238.1 		"/>
		<polyline class="st10" points="705.7,255.3 805.5,255.3 803.1,247.5 		"/>
		<polyline class="st10" points="705.7,264.7 805.5,264.7 803.1,256.9 		"/>
		<polyline class="st10" points="705.7,274.1 805.5,274.1 803.1,266.4 		"/>
		<polyline class="st10" points="705.7,283.6 805.5,283.6 803.1,275.8 		"/>
		<polyline class="st10" points="705.7,293 805.5,293 803.1,285.2 		"/>
		<polyline class="st10" points="705.7,302.4 805.5,302.4 803.1,294.6 		"/>
		<polyline class="st10" points="705.7,311.8 805.5,311.8 803.1,304 		"/>
		<polyline class="st10" points="705.7,321.2 805.5,321.2 803.1,313.4 		"/>
		<polyline class="st10" points="705.7,330.6 805.5,330.6 803.1,322.9 		"/>
		<polyline class="st10" points="705.7,340 805.5,340 803.1,332.3 		"/>
		<polyline class="st10" points="705.7,349.5 805.5,349.5 803.1,341.7 		"/>
		<polyline class="st10" points="705.7,358.9 805.5,358.9 803.1,351.1 		"/>
		<polyline class="st10" points="705.7,368.3 805.5,368.3 803.1,360.5 		"/>
		<polyline class="st10" points="705.7,377.7 805.5,377.7 803.1,369.9 		"/>
		<polyline class="st10" points="705.7,387.1 805.5,387.1 803.1,379.4 		"/>
		<polyline class="st10" points="705.7,396.5 805.5,396.5 803.1,388.8 		"/>
		<polyline class="st10" points="705.7,406 805.5,406 803.1,398.2 		"/>
	</g>
</g>
<g class="st9">
	<rect x="482.4" y="119" class="st10" width="80.4" height="103.6"/>
	<rect x="488.6" y="127" class="st10" width="68" height="87.7"/>
</g>
<g>
	<line class="st11" x1="804.9" y1="428.3" x2="811.1" y2="428.3"/>
	<line class="st11" x1="463.1" y1="428.3" x2="798.2" y2="428.3"/>
</g>
<g>
	<path class="st12" d="M779.5,274.7c0,0-12.1-6.7-13,8.5c-0.9,15.3-3.1,114.7-3.1,114.7"/>
	<path class="st12" d="M760.1,284.6c0,0,9.9,22,5.4,112"/>
	<g>
		<path class="st7" d="M769.9,277.8c0,0-4.6,3-7.3-0.4c-2.6-3.4,1.8-9.6-2.1-12.3c-3.9-2.7-10.6,1.4-10.6,1.4s5.2,1.5,5,4.4
			c-0.2,2.8-2.7,3.9-3,2.7c-0.3-1.2-2.8-7.5-7-4.9c-4.2,2.6-4.9,6.6-4.9,6.6s9.8-1,10.4,2.6c0.6,3.7-4-0.6-8.1-0.9s-7.7,0.4-7.5,2.8
			c0.3,2.5-0.4,6.5-0.4,6.5s3.4-3,7.9-2.8c4.5,0.3,4.3,3.1,0.2,2.9c-4-0.2-7.5,3.6-7.5,3.6s3.7,6.3,8.4,9.4c4.7,3.1,6.4,2,6.9-0.4
			c0.5-2.4-0.7-8.6,2.1-8.4c2.8,0.2-4.7,10.7-1.1,11.3c3.6,0.6,6.5-0.4,7.5-2.8c1-2.4,1-2.4,1-2.4s-1.3-6.2-0.7-8.6
			c0.5-2.4,1.2,0.1,1.9,3c0.6,2.9,1,9.8,2.3,9.5c1.2-0.3,5.2-5.4,6.1-7.4c0.9-2-5.2-8-5.1-9.2c0.1-1.2,4.8,1.1,5.5,2.4
			s1.5,2.9,1.5,2.9s3-1.9,2.9-7.5C774,276,769.9,277.8,769.9,277.8z"/>
		<path class="st13" d="M769.9,277.8c0,0-4.6,3-7.3-0.4c-2.6-3.4,1.8-9.6-2.1-12.3c-3.9-2.7-10.6,1.4-10.6,1.4s5.2,1.5,5,4.4
			c-0.2,2.8-2.7,3.9-3,2.7c-0.3-1.2-2.8-7.5-7-4.9c-4.2,2.6-4.9,6.6-4.9,6.6s9.8-1,10.4,2.6c0.6,3.7-4-0.6-8.1-0.9s-7.7,0.4-7.5,2.8
			c0.3,2.5-0.4,6.5-0.4,6.5s3.4-3,7.9-2.8c4.5,0.3,4.3,3.1,0.2,2.9c-4-0.2-7.5,3.6-7.5,3.6s3.7,6.3,8.4,9.4c4.7,3.1,6.4,2,6.9-0.4
			c0.5-2.4-0.7-8.6,2.1-8.4c2.8,0.2-4.7,10.7-1.1,11.3c3.6,0.6,6.5-0.4,7.5-2.8c1-2.4,1-2.4,1-2.4s-1.3-6.2-0.7-8.6
			c0.5-2.4,1.2,0.1,1.9,3c0.6,2.9,1,9.8,2.3,9.5c1.2-0.3,5.2-5.4,6.1-7.4c0.9-2-5.2-8-5.1-9.2c0.1-1.2,4.8,1.1,5.5,2.4
			s1.5,2.9,1.5,2.9s3-1.9,2.9-7.5C774,276,769.9,277.8,769.9,277.8z"/>
		<path class="st10" d="M746.3,291.2c3-3.7,7.5-8.8,11.2-11.2"/>
		<path class="st10" d="M742.8,295.7c0,0,0.8-1.1,2-2.7"/>
		<path class="st10" d="M759.5,280.9c0,0,4.5,6.4,5.3,12.9"/>
		<path class="st10" d="M754.4,284.6c0,0,1.3-0.7,0.8,7.4"/>
		<path class="st10" d="M757.7,277.1c0,0,2.6-2.3,1.2-6.8"/>
		<line class="st10" x1="754.2" y1="280.9" x2="752.4" y2="277.6"/>
		<path class="st10" d="M750.4,284.4c0,0-5.8-4.4-9.5-4.6"/>
	</g>
	<g>
		<path class="st7" d="M786.4,265.8c0,0-0.2,6.7-5.4,7c-5.2,0.3-8.4-8.4-13.8-6.3c-5.3,2.1-5.9,11.6-5.9,11.6s5.1-4.2,7.8-2.1
			c2.7,2.1,2.1,5.3,0.6,4.8c-1.5-0.5-9.4-2.3-9.7,3.7c-0.3,6,3.3,9.4,3.3,9.4s5.6-10.5,9.7-8.6c4.1,1.9-3.4,3.6-6.4,7.5
			c-3,3.9-4.9,8-2.3,9.4c2.6,1.4,6.2,4.8,6.2,4.8s-0.7-5.5,2.6-9.8c3.3-4.3,6-2.2,3,1.7c-3,3.9-1.5,10-1.5,10s8.8,0.6,15.2-2
			c6.3-2.6,6.4-5,4.3-7.2c-2-2.2-9.1-5.1-7-7.9c2.1-2.7,7.5,12,10.6,8.8c3.1-3.2,4-6.8,2.3-9.4c-1.7-2.6-1.7-2.6-1.7-2.6
			s-7-2.9-9.1-5.1c-2-2.2,0.9-1.2,4.2,0.2c3.3,1.3,10.5,5.6,11,4.2c0.5-1.5-1.8-8.9-3.2-11.1c-1.3-2.3-11.6-0.3-12.8-1.2
			c-1.2-0.9,4.4-4.1,6.1-3.9c1.8,0.1,3.9,0.5,3.9,0.5s0.2-4.2-5.6-8C787.5,260.4,786.4,265.8,786.4,265.8z"/>
		<path class="st14" d="M786.4,265.8c0,0-0.2,6.7-5.4,7c-5.2,0.3-8.4-8.4-13.8-6.3c-5.3,2.1-5.9,11.6-5.9,11.6s5.1-4.2,7.8-2.1
			c2.7,2.1,2.1,5.3,0.6,4.8c-1.5-0.5-9.4-2.3-9.7,3.7c-0.3,6,3.3,9.4,3.3,9.4s5.6-10.5,9.7-8.6c4.1,1.9-3.4,3.6-6.4,7.5
			c-3,3.9-4.9,8-2.3,9.4c2.6,1.4,6.2,4.8,6.2,4.8s-0.7-5.5,2.6-9.8c3.3-4.3,6-2.2,3,1.7c-3,3.9-1.5,10-1.5,10s8.8,0.6,15.2-2
			c6.3-2.6,6.4-5,4.3-7.2c-2-2.2-9.1-5.1-7-7.9c2.1-2.7,7.5,12,10.6,8.8c3.1-3.2,4-6.8,2.3-9.4c-1.7-2.6-1.7-2.6-1.7-2.6
			s-7-2.9-9.1-5.1c-2-2.2,0.9-1.2,4.2,0.2c3.3,1.3,10.5,5.6,11,4.2c0.5-1.5-1.8-8.9-3.2-11.1c-1.3-2.3-11.6-0.3-12.8-1.2
			c-1.2-0.9,4.4-4.1,6.1-3.9c1.8,0.1,3.9,0.5,3.9,0.5s0.2-4.2-5.6-8C787.5,260.4,786.4,265.8,786.4,265.8z"/>
		<path class="st10" d="M783.7,298.5c-1.7-5.6-3.7-13.5-3.6-18.9"/>
		<path class="st10" d="M785.9,305.1c0,0-0.6-1.5-1.3-3.9"/>
		<path class="st10" d="M782.4,278.2c0,0,9.4-0.2,16.6,3.5"/>
		<path class="st10" d="M782.7,285.9c0,0,0.1-1.8,7.9,4.2"/>
		<path class="st10" d="M777.4,277.5c0,0-0.5-4.1-6-5.9"/>
		<line class="st10" x1="778.9" y1="283.6" x2="774.3" y2="283.1"/>
		<path class="st10" d="M779.7,289.8c0,0-8.4,2.8-11.1,6.3"/>
	</g>
	<path class="st12" d="M730.4,310.3c0,0,26.5,17.5,26.1,85.5"/>
	<g>
		<path class="st7" d="M763.2,305.6c0,0-0.8,7.7-6.9,7.6c-6-0.1-8.9-10.4-15.3-8.5c-6.4,1.9-7.8,12.9-7.8,12.9s6.2-4.3,9.2-1.6
			c2.9,2.7,1.9,6.4,0.3,5.6s-10.6-3.5-11.5,3.4c-0.9,6.9,2.9,11.1,2.9,11.1s7.5-11.6,12.1-9c4.6,2.6-4.2,3.8-8.1,8
			c-3.8,4.2-6.4,8.8-3.5,10.6c2.9,1.9,6.7,6.1,6.7,6.1s-0.3-6.4,3.9-11.1c4.2-4.6,7.2-1.9,3.3,2.3c-3.8,4.2-2.7,11.4-2.7,11.4
			s10.1,1.5,17.7-0.8c7.5-2.4,7.8-5.2,5.7-7.9c-2.1-2.7-10-6.8-7.3-9.7c2.7-2.9,7.5,14.5,11.4,11.1c3.9-3.4,5.3-7.5,3.5-10.6
			c-1.8-3.1-1.8-3.1-1.8-3.1s-7.8-4.1-10-6.8s1.1-1.3,4.9,0.6c3.7,1.8,11.6,7.5,12.4,5.9c0.7-1.6-1.3-10.4-2.6-13.2
			c-1.3-2.8-13.4-1.4-14.6-2.5c-1.3-1.1,5.4-4.3,7.5-4c2,0.3,4.5,1,4.5,1s0.6-4.9-5.7-9.8C764.9,299.5,763.2,305.6,763.2,305.6z"/>
		<path class="st13" d="M763.2,305.6c0,0-0.8,7.7-6.9,7.6c-6-0.1-8.9-10.4-15.3-8.5c-6.4,1.9-7.8,12.9-7.8,12.9s6.2-4.3,9.2-1.6
			c2.9,2.7,1.9,6.4,0.3,5.6s-10.6-3.5-11.5,3.4c-0.9,6.9,2.9,11.1,2.9,11.1s7.5-11.6,12.1-9c4.6,2.6-4.2,3.8-8.1,8
			c-3.8,4.2-6.4,8.8-3.5,10.6c2.9,1.9,6.7,6.1,6.7,6.1s-0.3-6.4,3.9-11.1c4.2-4.6,7.2-1.9,3.3,2.3c-3.8,4.2-2.7,11.4-2.7,11.4
			s10.1,1.5,17.7-0.8c7.5-2.4,7.8-5.2,5.7-7.9c-2.1-2.7-10-6.8-7.3-9.7c2.7-2.9,7.5,14.5,11.4,11.1c3.9-3.4,5.3-7.5,3.5-10.6
			c-1.8-3.1-1.8-3.1-1.8-3.1s-7.8-4.1-10-6.8s1.1-1.3,4.9,0.6c3.7,1.8,11.6,7.5,12.4,5.9c0.7-1.6-1.3-10.4-2.6-13.2
			c-1.3-2.8-13.4-1.4-14.6-2.5c-1.3-1.1,5.4-4.3,7.5-4c2,0.3,4.5,1,4.5,1s0.6-4.9-5.7-9.8C764.9,299.5,763.2,305.6,763.2,305.6z"/>
		<path class="st10" d="M757,343.1c-1.4-6.6-3-15.9-2.4-22.1"/>
		<path class="st10" d="M758.9,350.9c0,0-0.5-1.8-1.2-4.6"/>
		<path class="st10" d="M757.4,319.6c0,0,10.9,0.7,18.8,5.6"/>
		<path class="st10" d="M757,328.5c0,0,0.3-2,8.7,5.6"/>
		<path class="st10" d="M751.7,318.2c0,0-0.2-4.8-6.4-7.3"/>
		<line class="st10" x1="752.8" y1="325.4" x2="747.5" y2="324.5"/>
		<path class="st10" d="M753.2,332.7c0,0-9.9,2.5-13.4,6.3"/>
	</g>
	<path class="st12" d="M740.8,363.8c0,0,17.1,13,18.9,32.4l-3.6-64.8"/>
	<path class="st12" d="M782.2,354.3c-22.5-4-22.5,41.8-22.5,41.8"/>
	<path class="st12" d="M762.4,395.7c0,0-13-94.9,24.7-94.9"/>
	<g>
		<path class="st7" d="M773.6,351.6c-3.1-3.5-9.6-3.5-13.4,5.4c-3.8,8.8-0.4,7.3-0.4,7.3s7.3-2.3,11.9-3.8
			c4.6-1.5,10.8-5.4,11.1-3.1c0.4,2.3-3.1,4.6-7.3,5.4c-4.2,0.8-15.4,3.8-14.2,6.1c1.2,2.3,3.8,9.2,3.8,9.2s5.4-4.6,10.4-7.7
			c5-3.1,8.1-1.9,5.4,1.5c-2.7,3.5-10.4,7.3-8.8,11.9c1.5,4.6,10.8,10.4,10.8,10.4s1.2-9.6,3.8-12.7c2.7-3.1,2.7,0.4,1.9,5.8
			c-0.8,5.4-0.8,6.9-0.8,6.9l10.8,3.8c0,0,3.8-5.8,5.8-7.7c1.9-1.9,1.9-1.9,1.9-1.9s-8.4-7.3-8.8-11.9c-0.4-4.6,5.8,0,7.7,0.8
			c1.9,0.8,5,6.1,5,6.1s1.9-8.8,2.3-11.9c0.4-3.1,0.4-3.1,0.4-3.1s-8.1-3.1-11.1-3.1c-3.1,0-4.6,2.3-4.6-0.8c0-3.1,3.1-5,6.5-4.6
			c3.5,0.4,9.2,2.3,9.2,2.3s2.3-1.9,1.5-7.7c-0.8-5.8-2.7-5.8-7.3-4.2c-4.6,1.5-7.7,5-11.1,5s-1.5-4.2,0.8-5.4
			c2.3-1.2,8.1-3.5,9.2-3.8c1.2-0.4-6.1-5.8-10-6.5c-3.8-0.8-8.8,1.9-8.4,5.8C788.2,353.5,776.7,355.1,773.6,351.6z"/>
		<path class="st10" d="M798.3,391.1c0.1,1.2,0.2,2.3,0.2,3.5"/>
		<path class="st10" d="M790.6,363.6c2.7,6.2,5.8,14.8,7.2,23.8"/>
		<path class="st10" d="M789.2,360.5c-1.9-4.1-3.3-6.6-3.3-6.6s3.5-1.5,5-4.6c1.5-3.1,3.8-4.6,3.8-4.6"/>
		<path class="st10" d="M772.4,367c0,0,13.8-5.8,13.8-4.6"/>
		<path class="st10" d="M793.9,359.7c0,0,6.1-3.1,11.5-3.1"/>
		<path class="st10" d="M791.6,368.9c0,0-3.5,2.7-7.3,7.3c-3.8,4.6-5.4,8.8-5.4,8.8"/>
		<path class="st10" d="M795.9,370.4c0,0,8.1-2.3,12.3,1.5"/>
	</g>
	<g>
		<path class="st7" d="M810.5,318.5c-4.2-2.5-8.8-2.5-11.1-5.1c-2.3-2.6,2.2-3.9,4.6-2.9c2.4,1,7.9,3.8,8.9,4.4
			c1,0.6,0.3-8.4-1.6-11.8c-1.9-3.4-7.2-5.4-9.9-2.6c-5.6,5.9-14.3-1.8-13.7-6.4c0.6-4.6-3.7-9.5-12.9-6.6c-9.2,2.9-5.8,4.5-5.8,4.5
			s6.5,4,10.7,6.5c4.2,2.5,11.1,4.6,9.6,6.4c-1.5,1.8-5.5,0.7-8.8-2c-3.3-2.7-13-9.1-14-6.7c-1,2.4-4.4,8.9-4.4,8.9s7,1,12.6,2.8
			c5.6,1.8,6.7,4.8,2.4,5.1c-4.4,0.2-12.3-3-14.8,1.1c-2.5,4.2-0.8,14.9-0.8,14.9s8-5.4,12.1-5.4c4.1,0,1.5,2.3-3.1,5.2
			c-4.6,2.9-5.7,4-5.7,4l4.1,10.6c0,0,6.9-0.9,9.6-0.7c2.7,0.2,2.7,0.2,2.7,0.2s0-11.2,3.2-14.5c3.2-3.3,3.8,4.3,4.5,6.3
			c0.7,2-1.4,7.8-1.4,7.8s7.9-4.3,10.5-6.1c2.6-1.7,2.6-1.7,2.6-1.7s-3-8.1-5-10.4c-2-2.3-4.8-2-2.4-4c2.3-2,5.8-1,7.8,1.9
			c2,2.9,4.3,8.5,4.3,8.5s3,0.5,6.8-3.9C815.9,322.5,814.7,321,810.5,318.5z M774.1,330.8c-3.1-1.5,4.2-4.6,4.2-4.6
			C781,325.8,777.2,332.4,774.1,330.8z M779.3,316.5c-1.3-0.7,2.6-2,2.6-2C787.6,315.6,780.6,317.1,779.3,316.5z"/>
		<path class="st10" d="M774.1,338.6c-0.8,0.8-1.6,1.7-2.5,2.5"/>
		<path class="st10" d="M789.8,314.8c-2.9,6.1-7.4,14.1-13.2,21.1"/>
		<path class="st10" d="M791.2,311.7c1.8-4.1,2.8-6.8,2.8-6.8s3.4,1.6,6.8,0.7c3.3-0.9,6-0.1,6-0.1"/>
		<path class="st10" d="M775.4,303.3c0,0,13.4,6.7,12.5,7.4"/>
		<path class="st10" d="M795,314.7c0,0,6.3,2.6,9.9,6.7"/>
		<path class="st10" d="M786.5,319c0,0-4.3-0.8-10.3-0.7c-6,0.1-10.2,1.7-10.2,1.7"/>
		<path class="st10" d="M788.1,323.2c0,0,7,4.6,6.9,10.3"/>
	</g>
	<g>
		<path class="st7" d="M750.8,371.7c-3.4-2-7.1-2-8.9-4.1c-1.8-2.1,1.8-3.2,3.7-2.4c1.9,0.8,6.4,3.1,7.2,3.6
			c0.8,0.5,0.3-6.8-1.3-9.5c-1.6-2.7-5.8-4.3-8-2.1c-4.5,4.7-11.5-1.5-11-5.2c0.5-3.7-3-7.7-10.4-5.3c-7.4,2.3-4.6,3.6-4.6,3.6
			s5.2,3.2,8.6,5.2c3.4,2,8.9,3.7,7.7,5.1c-1.2,1.4-4.4,0.6-7.1-1.6c-2.7-2.2-10.4-7.3-11.2-5.4c-0.8,1.9-3.6,7.2-3.6,7.2
			s5.6,0.8,10.1,2.2c4.5,1.4,5.4,3.9,1.9,4.1c-3.5,0.2-9.9-2.5-11.9,0.9c-2,3.4-0.6,12-0.6,12s6.4-4.4,9.7-4.4
			c3.3,0,1.2,1.8-2.5,4.2s-4.6,3.2-4.6,3.2l3.3,8.6c0,0,5.5-0.7,7.7-0.6c2.2,0.2,2.2,0.2,2.2,0.2s0-9,2.6-11.6
			c2.6-2.7,3,3.5,3.6,5.1c0.5,1.6-1.1,6.3-1.1,6.3s6.4-3.5,8.4-4.9c2.1-1.4,2.1-1.4,2.1-1.4s-2.4-6.5-4-8.4c-1.6-1.9-3.8-1.6-2-3.2
			c1.9-1.6,4.7-0.8,6.2,1.5c1.6,2.3,3.5,6.8,3.5,6.8s2.4,0.4,5.5-3.1C755.2,374.9,754.2,373.7,750.8,371.7z M721.6,381.6
			c-2.5-1.2,3.4-3.7,3.4-3.7C727.1,377.6,724,382.9,721.6,381.6z M725.7,370.1c-1.1-0.5,2.1-1.6,2.1-1.6
			C732.4,369.4,726.8,370.6,725.7,370.1z"/>
		<path class="st10" d="M721.5,387.9c-0.6,0.7-1.3,1.3-2,2"/>
		<path class="st10" d="M734.2,368.7c-2.4,4.9-5.9,11.4-10.6,16.9"/>
		<path class="st10" d="M735.3,366.2c1.5-3.3,2.2-5.5,2.2-5.5s2.8,1.3,5.4,0.6c2.7-0.7,4.8-0.1,4.8-0.1"/>
		<path class="st10" d="M722.5,359.4c0,0,10.8,5.4,10.1,6"/>
		<path class="st10" d="M738.3,368.7c0,0,5.1,2.1,7.9,5.4"/>
		<path class="st10" d="M731.5,372.1c0,0-3.5-0.7-8.3-0.6c-4.8,0.1-8.2,1.4-8.2,1.4"/>
		<path class="st10" d="M732.8,375.5c0,0,5.7,3.7,5.5,8.3"/>
	</g>
	<g>
		<path class="st7" d="M737.1,308.3c0,0-4.2,3.1-6.9,0c-2.7-3.1,1.2-9.2-2.7-11.5c-3.8-2.3-10,1.9-10,1.9s5,1.2,5,3.8
			s-2.3,3.8-2.7,2.7c-0.4-1.2-3.1-6.9-6.9-4.2c-3.8,2.7-4.2,6.5-4.2,6.5s9.2-1.5,10,1.9c0.8,3.5-3.8-0.4-7.7-0.4
			c-3.8,0-7.3,0.8-6.9,3.1c0.4,2.3,0,6.1,0,6.1s3.1-3.1,7.3-3.1s4.2,2.7,0.4,2.7c-3.8,0-6.9,3.8-6.9,3.8s3.8,5.8,8.4,8.4
			c4.6,2.7,6.1,1.5,6.5-0.8c0.4-2.3-1.2-8.1,1.5-8.1c2.7,0-3.8,10.4-0.4,10.8c3.5,0.4,6.1-0.8,6.9-3.1c0.8-2.3,0.8-2.3,0.8-2.3
			s-1.5-5.8-1.2-8.1c0.4-2.3,1.2,0,1.9,2.7c0.8,2.7,1.5,9.2,2.7,8.8c1.2-0.4,4.6-5.4,5.4-7.3c0.8-1.9-5.4-7.3-5.4-8.4
			c0-1.2,4.6,0.8,5.4,1.9c0.8,1.2,1.5,2.7,1.5,2.7s2.7-1.9,2.3-7.3C740.9,306.4,737.1,308.3,737.1,308.3z"/>
		<path class="st10" d="M715.6,322.3c2.7-3.7,6.6-8.7,10-11.2"/>
		<path class="st10" d="M712.5,326.8c0,0,0.7-1.1,1.8-2.7"/>
		<path class="st10" d="M727.5,311.8c0,0,4.6,5.8,5.8,11.9"/>
		<path class="st10" d="M722.9,315.6c0,0,1.2-0.8,1.2,6.9"/>
		<path class="st10" d="M725.6,308.3c0,0,2.3-2.3,0.8-6.5"/>
		<line class="st10" x1="722.5" y1="312.2" x2="720.6" y2="309.1"/>
		<path class="st10" d="M719,315.6c0,0-5.8-3.8-9.2-3.8"/>
	</g>
	<rect x="746.2" y="394.4" class="st15" width="29.7" height="42.7"/>
</g>
<g>
	<ellipse class="st16" cx="548.4" cy="440.6" rx="73" ry="15.7"/>
	<path class="st17" d="M525.8,316c0,0,1.6,7.4,1.7,8c0.1,0.6-22.2,13.1-23.7,14.2c-1.5,1.2-4.3,1.9-4.2,3.2
		c0.1,1.3,17.2,38.7,18.5,46.2S522,408,522,408l1.1,7.8H579l-0.1-42.8c0,0,1.8-42.6,1.6-43.6c-0.2-1-1.7-1.7-2-1.8
		s-25.4-3.6-28.7-4.5c-3.3-0.9-4.5-3.7-4.7-4.7c-0.3-1.1-7.4-3.5-12.2-4.1C528.1,313.7,525.7,314.9,525.8,316z"/>
	<g>
		<path class="st18" d="M577.4,327.4c-4.9-0.7-24.7-3.5-27.5-4.3c-1-0.3-1.9-0.7-2.5-1.3l-21.1,3.1c-4.7,3-21.1,12.3-22.4,13.3
			c0,0,0,0-0.1,0L577.4,327.4z"/>
		<path class="st18" d="M578.9,376.3l-61.3,9.1c0.3,0.9,0.5,1.7,0.6,2.3c0.4,2.2,0.9,4.8,1.4,7.5l59.4-8.8L578.9,376.3z"/>
		<path class="st18" d="M579,396l-57.6,8.5c0.4,2.1,0.7,3.5,0.7,3.5l0.9,6.3L579,406L579,396z"/>
		<path class="st18" d="M579.9,346.8c0.1-3.7,0.3-7.2,0.4-10.1l-77.9,11.5c1.1,2.7,2.6,5.9,4.1,9.4L579.9,346.8z"/>
		<path class="st18" d="M579.2,366.6c0.1-2.8,0.3-6.4,0.4-10.1l-69.2,10.2c1.4,3.3,2.7,6.5,3.9,9.5L579.2,366.6z"/>
	</g>
	<path class="st19" d="M519,329.3c2.7,8.4,10.2,14.4,19.1,14.4c10.4,0,19-8.4,20.1-19.1c-4-0.6-7.3-1.2-8.3-1.5
		c-3.3-0.9-4.5-3.7-4.7-4.7c-0.3-1.1-7.4-3.5-12.2-4.1c-4.7-0.6-7.2,0.6-7.1,1.7c0,0,1.6,7.4,1.7,8
		C527.5,324.2,523.6,326.6,519,329.3z"/>
	<path class="st19" d="M606.2,403.1c0,0-19.4,5.5-23.9,6.3c-4.5,0.8-10.7,1.2-10.7,1.2s-47.8-1.2-49-1.4
		c-1.2-0.2-24.5-10.7-24.5-10.7s45,36.9,49.8,39.1c4.9,2.2,14-1.2,19.4-4.5C572.8,429.9,606.2,403.1,606.2,403.1z"/>
	<path class="st20" d="M522.1,327.4c1.1,3.9,5.3,13.7,18.3,11.3c10.3-1.9,14-9.4,15.3-14.5c-2.7-0.5-4.9-0.9-5.8-1.1
		c-3.3-0.9-4.5-3.7-4.7-4.7c-0.3-1.1-7.4-3.5-12.2-4.1c-4.7-0.6-7.2,0.6-7.1,1.7c0,0,1.6,7.4,1.7,8
		C527.5,324.2,525.2,325.6,522.1,327.4z"/>
	<path class="st19" d="M525.8,316c0,0,0.8,3.9,1.3,6.3c3.3,1.4,8.9,3.4,11.9,1.9c2.7-1.3,5.1-3.3,6.5-4.7c-0.2-0.4-0.4-0.8-0.4-1.1
		c0-0.2-0.3-0.4-0.7-0.6l-2.6-0.2l-11.5-3.4C527.3,314.2,525.7,315.1,525.8,316z"/>
	<g>
		<path class="st20" d="M518.5,270.4c0,0-11.5,7.1-10.6,13c0.9,5.9,5.2,17.4,5.2,17.4s-4.2-4.2-4.5,0.9c-0.2,5.2,3.8,7.3,4.9,7.3
			c1.2,0,2.6-0.5,2.6-0.5s5.9,6.8,8.2,7.8c2.4,0.9,11.3,4.9,14.4,4.9c3.1,0,8-1.2,9-3.1c0.9-1.9,3.5-13.7,3.1-15.8
			c-0.5-2.1-4.9-21.2-5.9-23.6c-0.9-2.4-1.2-7.3-7.8-10.4C530.5,265.4,518.5,270.4,518.5,270.4z"/>
		<path class="st19" d="M537.1,268.5c-6.6-3.1-18.6,1.9-18.6,1.9s-11.5,7.1-10.6,13c0.9,5.9,5.2,17.4,5.2,17.4s2.1,2.1,3.3,0.9
			c1.2-1.2-3.1-6.6-3.1-6.6s0.2-2.1,0.2-4.5c0-2.4-1.2-4.9-2.8-7.3c-1.6-2.4,3.1-9.7,6.6-10.4c3.5-0.7,8.7,0.5,11.5-0.9
			s2.8-3.3,2.8-3.3s0.7-0.5,3.8-0.5C536,268.3,536.5,268.4,537.1,268.5C537.1,268.5,537.1,268.5,537.1,268.5z"/>
		<g>
			<path class="st12" d="M531.5,288.3l-14.4,6c0,0,1.2,5.4,2.4,6.5c1.2,1.1,2.9,2,6.9,1.1c4-0.9,7.6-3.4,7.6-5.3
				C533.9,294.8,531.5,288.3,531.5,288.3z"/>
			<path class="st12" d="M535.7,286.9l14.9-4.6c0,0,2.5,4.9,2.3,6.5s-1,3.4-4.6,5.3c-3.6,1.9-8,2.3-9.2,0.8
				C538,293.5,535.7,286.9,535.7,286.9z"/>
			<path class="st12" d="M531.5,288.3c0,0,2.1-1.9,4.1-1.4"/>
			<path class="st12" d="M532.5,290.5c0,0,1.8-2.5,4-1.5"/>
			<line class="st12" x1="517.2" y1="294.3" x2="512.7" y2="300.6"/>
			<line class="st12" x1="550.6" y1="282.4" x2="546.9" y2="285.4"/>
		</g>
		<circle class="st16" cx="528.2" cy="293.1" r="1"/>
		<circle class="st16" cx="543.3" cy="288.1" r="1"/>
		<path class="st12" d="M527.4,285.7c0,0-5.1-1.5-6.7,3.8"/>
		<path class="st12" d="M537.2,284.2c0,0,1.1-3.1,6.5-1.6"/>
		<path class="st11" d="M537.4,292.7c0,0,1.6,3.5,2.9,4c1.3,0.5,4.4,1.5,2.8,2.7s-5.1,2.9-6.6,2.9c-1.5,0-2.1-1.2-2.1-1.2"/>
		<path class="st11" d="M541.5,306c0,0-3.1,2.1-7.4,1.7c-4.2-0.3-5-2.3-5-2.3"/>
		<line class="st11" x1="530" y1="304.5" x2="527.8" y2="306.6"/>
	</g>
	<g>
		<path class="st20" d="M489.1,367.2c0,0-5.8,27.2-5.8,28.4c0,1.2,14,5,16.6,3.2c2.6-1.8,8.2-25,8.2-25L489.1,367.2z"/>
		<path class="st19" d="M487.7,373.7l19.2,5c0.8-2.9,1.3-5,1.3-5l-19-6.6C489.1,367.2,488.5,370,487.7,373.7z"/>
		<polygon class="st18" points="499.6,341.4 482.5,368.6 510.5,377.4 512.5,371.6 		"/>
	</g>
	<g>
		<polygon class="st20" points="578.6,370.8 586.2,393.2 606.8,390.2 597.8,360 		"/>
		<polygon class="st19" points="597.8,360 578.6,370.8 581,377.7 599.2,364.7 		"/>
		<polygon class="st18" points="580.5,329.4 602.4,358.8 578.9,373 		"/>
	</g>
	<g>
		<path class="st20" d="M498.5,381.2l31.6,25.2l-8.6,6.2c0,0-36.8-13.8-38-16c-1.2-2.2,2.2-10.4,2.2-10.4"/>
		<g>
			<path class="st17" d="M534.3,405.5c0,0,3.3,2.1,3.8,2.2c0.6,0.1,2.8,4.3,3.7,4.8c0.9,0.5,2.2,1.5,1.5,2.1
				c-0.7,0.6-1.9,1.4-2.7,1.2c-0.8-0.2-2.6-2.4-3.1-3.1c-0.6-0.7-3.1-2.6-3.1-2.6L534.3,405.5z"/>
			<g>
				<path class="st17" d="M534.9,404.6c-0.1-0.4-0.5-0.6-0.9-0.5c-1.2,0.3-3.8,1.1-3.7,1.6c0.2,0.7,3.4,11.2,4.2,11.3
					c0.8,0.1,3.8,0.7,3.8-0.3C538.4,415.8,535.8,407.3,534.9,404.6z"/>
				<path class="st17" d="M530.4,405.8c0,0-3.3,0-3.5,1.2c-0.2,1.2,3.6,10.7,4.2,11.3c0.6,0.6,3.5-0.2,3.5-1.2
					S530.4,405.8,530.4,405.8z"/>
				<path class="st17" d="M526.9,406.9c0,0-3.4,0.7-3.4,1.6c0,0.9,3.5,10,3.8,10.2c0.3,0.2,1.9,0,2.3-0.2c0.5-0.2,0.7-1.5,0.7-1.5
					L526.9,406.9z"/>
				<path class="st17" d="M523.5,408.6c0,0-3.1,2.2-2.6,4.2c0.6,2,2.1,5.1,2.8,5.5c0.7,0.3,2.2-0.3,2.3-0.7c0.1-0.3,0.1-0.3,0.1-0.3
					l-0.1-0.6L523.5,408.6z"/>
			</g>
		</g>
	</g>
	<g>
		<path class="st20" d="M592.8,381.2l-31.6,25.2l8.6,6.2c0,0,36.8-13.8,38-16c1.2-2.2-2.2-10.4-2.2-10.4"/>
		<g>
			<path class="st17" d="M557,405.5c0,0-3.3,2.1-3.8,2.2c-0.6,0.1-2.8,4.3-3.7,4.8c-0.9,0.5-2.2,1.5-1.5,2.1
				c0.7,0.6,1.9,1.4,2.7,1.2s2.6-2.4,3.1-3.1c0.6-0.7,3.1-2.6,3.1-2.6L557,405.5z"/>
			<g>
				<path class="st17" d="M556.4,404.6c0.1-0.4,0.5-0.6,0.9-0.5c1.2,0.3,3.8,1.1,3.7,1.6c-0.2,0.7-3.4,11.2-4.2,11.3
					s-3.8,0.7-3.8-0.3C552.9,415.8,555.5,407.3,556.4,404.6z"/>
				<path class="st17" d="M561,405.8c0,0,3.3,0,3.5,1.2c0.2,1.2-3.6,10.7-4.2,11.3c-0.6,0.6-3.5-0.2-3.5-1.2S561,405.8,561,405.8z"
					/>
				<path class="st17" d="M564.5,406.9c0,0,3.4,0.7,3.4,1.6c0,0.9-3.5,10-3.8,10.2c-0.3,0.2-1.9,0-2.3-0.2c-0.5-0.2-0.7-1.5-0.7-1.5
					L564.5,406.9z"/>
				<path class="st17" d="M567.8,408.6c0,0,3.1,2.2,2.6,4.2c-0.6,2-2.1,5.1-2.8,5.5c-0.7,0.3-2.2-0.3-2.3-0.7
					c-0.1-0.3-0.1-0.3-0.1-0.3l0.1-0.6L567.8,408.6z"/>
			</g>
		</g>
	</g>
	<g>
		<path class="st17" d="M574.4,443.8c0,0,10.3-0.2,18.8-3.4c8.5-3.2,12.6-2,14.6,1.2c2,3.2,1.2,9.3-0.2,12
			c-1.4,2.6-6.7,5.3-15.2,6.5c-8.5,1.2-17.8-0.6-17.8-0.6L574.4,443.8z"/>
		<path class="st17" d="M598.4,458.8c5-1.4,8.2-3.3,9.3-5.3c1.4-2.6,2.2-8.7,0.2-12c-1.7-2.8-5-4.1-11.3-2.3l0.3,0.3
			c0,0,6.9-2,8.1,2.2c1.2,4.3,0,11.5-2.4,13.8C601.4,456.7,599.7,457.9,598.4,458.8z"/>
	</g>
	<g>
		<path class="st17" d="M537,440.4c0,0-10.2,1.9-19.1,0.5c-9-1.4-12.7,0.6-14,4.2c-1.3,3.6,0.7,9.4,2.6,11.7
			c1.9,2.3,7.6,3.8,16.2,3.2c8.6-0.5,28.4-7,28.4-7L537,440.4z"/>
		<path class="st19" d="M531.8,444.9c0,0,6,5.2,3.6,9.2c-0.9,1.5-1.9,2.9-2.8,4.1c8.8-2.1,18.5-5.3,18.5-5.3l-9.5-8.5l-2.2-0.4
			L531.8,444.9z"/>
		<path class="st17" d="M516.6,460c-5.2-0.3-8.7-1.6-10.1-3.3c-1.9-2.3-4-8.1-2.6-11.7c1.1-3.1,4.1-5,10.6-4.6l-0.3,0.4
			c0,0-7.2-0.6-7.5,3.8c-0.3,4.4,2.4,11.3,5.2,13C513.2,458.5,515.1,459.3,516.6,460z"/>
	</g>
	<path class="st18" d="M596.6,402.2c0,0-13.1,9.4-21.3,15.9c-8.2,6.5-17.7,13.2-19.2,13.9c-1.6,0.7-3.5-0.3-5,0.4
		c-1.6,0.7-2.3,1.8-2.3,1.8s-3.8,0.9-4.4,1c-0.6,0-1,5.8-0.1,9.6c0.9,3.8,7.1,7.4,8.1,7.7s12.9-3.7,22.6-7.7
		c9.6-4,35.3-18.6,40.3-22.5c5-3.8,6.6-6.2,4.8-14c-1.8-7.8-7-10.8-11.4-10.9C604.2,397.3,596.6,402.2,596.6,402.2z"/>
	<path class="st18" d="M554.1,436.7c0,0-15.3-6.7-26.8-17.9s-26.5-21.4-31.7-21.8c-5.3-0.4-11.1,4.5-15.2,10.3
		c-4.1,5.9,2.9,16.2,8.2,19.6c5.3,3.4,28.5,13.6,40.4,18.3c12,4.7,29.6,11.7,32.2,12.2c2.6,0.4,10.5,3.8,12.4,3.8
		c1.8,0,2.8-1.8,3-3.4c0.2-1.6-0.4-11.5-0.4-13.2c0-1.6-1-2.8-2.6-2.8c-1.6,0-3.8,1.2-4.5,1.2c-0.6,0-2.4-3.4-3.8-3.4
		c-1.4,0-2.8,0.6-3.2-0.4C561.6,438.2,557.8,436.1,554.1,436.7z"/>
	<g>
		<rect x="510.9" y="370.4" class="st17" width="74.9" height="48.5"/>
		<rect x="510.9" y="370.4" class="st17" width="74.9" height="45.4"/>
		<path class="st19" d="M585.8,372.2c-18.3,4-27.3,19.4-44,29.2c-14.3,8.4-26,12.3-30.9,13.7v0.7h74.9V372.2z"/>
		<path class="st17" d="M552.1,393.1c0-2-1.7-3.7-3.7-3.7c-2,0-3.7,1.7-3.7,3.7c0,2,1.7,3.7,3.7,3.7
			C550.4,396.8,552.1,395.1,552.1,393.1z"/>
	</g>
</g>
</svg>
