<?xml version="1.0" encoding="utf-8"?>
<!-- Generator: Adobe Illustrator 24.1.2, SVG Export Plug-In . SVG Version: 6.00 Build 0)  -->
<svg version="1.1" xmlns="http://www.w3.org/2000/svg" xmlns:xlink="http://www.w3.org/1999/xlink" x="0px" y="0px"
	 viewBox="0 0 445.5 398.5" style="enable-background:new 0 0 445.5 398.5;" xml:space="preserve">
<style type="text/css">
	.st0{fill:#EBEBEB;}
	.st1{fill:#F5F5F5;}
	.st2{fill:#E6E6E6;}
	.st3{fill:#FAFAFA;}
	.st4{fill:#E0E0E0;}
	.st5{fill:#F0F0F0;}
	.st6{opacity:0.2;}
	.st7{display:none;}
	.st8{display:inline;}
	.st9{fill:#407BFF;}
	.st10{opacity:0.9;fill:#FFFFFF;}
	.st11{fill:#263238;}
	.st12{fill:#38B397;}
	.st13{opacity:0.6;enable-background:new    ;}
	.st14{fill:#FFFFFF;}
	.st15{fill:#186D3E;}
	.st16{fill:#D2FF00;}
	.st17{opacity:0.3;}
	.st18{fill:#272D29;}
	.st19{opacity:0.7;fill:#272D29;}
	.st20{fill:#E8BFBF;}
	.st21{fill:#9BCB4D;}
	.st22{opacity:0.3;fill:#FFFFFF;}
	.st23{opacity:0.2;enable-background:new    ;}
	.st24{opacity:0.3;fill:#D2FF00;}
	.st25{fill:#ED847E;}
	.st26{opacity:0.1;fill:#38B397;}
	.st27{opacity:0.1;}
	.st28{opacity:0.1;fill:#FFFFFF;}
	.st29{fill:none;stroke:#186D3E;stroke-width:1.3;stroke-miterlimit:10;}
</style>
<g id="Background_Complete">
	<rect x="389.1" y="355.4" class="st0" width="33.1" height="0.3"/>
	<rect x="294.8" y="358.1" class="st0" width="8.7" height="0.3"/>
	<rect x="368.9" y="346.1" class="st0" width="19.2" height="0.3"/>
	<rect x="24.8" y="347.8" class="st0" width="43.2" height="0.3"/>
	<rect x="76.9" y="347.8" class="st0" width="6.3" height="0.3"/>
	<rect x="103.8" y="352.1" class="st0" width="93.7" height="0.3"/>
	<g>
		<path class="st0" d="M210.7,294.7H17.6c-3.1,0-5.7-2.6-5.7-5.7V17.6c0-3.1,2.6-5.7,5.7-5.7h193.1c3.1,0,5.7,2.6,5.7,5.7V289
			C216.4,292.2,213.9,294.7,210.7,294.7z M17.6,12.1c-3,0-5.5,2.4-5.5,5.5V289c0,3,2.4,5.5,5.5,5.5h193.1c3,0,5.5-2.4,5.5-5.5V17.6
			c0-3-2.4-5.5-5.5-5.5H17.6z"/>
		<path class="st0" d="M427,294.7H233.9c-3.1,0-5.7-2.6-5.7-5.7V17.6c0-3.1,2.6-5.7,5.7-5.7H427c3.1,0,5.7,2.6,5.7,5.7V289
			C432.7,292.2,430.2,294.7,427,294.7z M233.9,12.1c-3,0-5.5,2.4-5.5,5.5V289c0,3,2.4,5.5,5.5,5.5H427c3,0,5.5-2.4,5.5-5.5V17.6
			c0-3-2.4-5.5-5.5-5.5H233.9z"/>
	</g>
	<rect x="-27.7" y="339.3" class="st0" width="500" height="0.3"/>
	<g>
		<g>
			<g>
				<g>
					<g>
						
							<rect x="322.4" y="206.9" transform="matrix(-1 -1.224647e-16 1.224647e-16 -1 739.9582 540.422)" class="st1" width="95.2" height="126.6"/>
						
							<rect x="304.2" y="206.9" transform="matrix(-1 -1.224647e-16 1.224647e-16 -1 626.6249 540.422)" class="st2" width="18.2" height="126.6"/>
						
							<rect x="328.6" y="216.3" transform="matrix(-1 -1.224647e-16 1.224647e-16 -1 739.4687 463.3266)" class="st3" width="82.3" height="30.8"/>
						<path class="st0" d="M380.5,216.3l-0.4,4.1c-0.1,1.4-1.3,2.4-2.6,2.4H362c-1.4,0-2.5-1-2.6-2.4l-0.4-4.1H380.5z"/>
						
							<rect x="328.6" y="250.4" transform="matrix(-1 -1.224647e-16 1.224647e-16 -1 739.4687 531.5558)" class="st3" width="82.3" height="30.8"/>
						<path class="st0" d="M380.5,250.4l-0.4,4.1c-0.1,1.4-1.3,2.4-2.6,2.4H362c-1.4,0-2.5-1-2.6-2.4l-0.4-4.1H380.5z"/>
						
							<rect x="328.6" y="284.5" transform="matrix(-1 -1.224647e-16 1.224647e-16 -1 739.4687 599.785)" class="st3" width="82.3" height="30.8"/>
						<path class="st0" d="M380.5,284.5l-0.4,4.1c-0.1,1.4-1.3,2.4-2.6,2.4H362c-1.4,0-2.5-1-2.6-2.4l-0.4-4.1H380.5z"/>
						<polygon class="st2" points="328.6,339.9 409.9,339.9 410.9,333.5 328.6,333.5 						"/>
						<polygon class="st4" points="311.6,339.9 328.6,339.9 328.6,333.5 310.6,333.5 						"/>
					</g>
					<g>
						<polygon class="st3" points="366.8,207 399.3,207 395.7,165.8 363.2,165.8 						"/>
						<polygon class="st0" points="366.8,207 365.2,207 361.6,165.8 363.2,165.8 						"/>
						<polygon class="st5" points="369.7,202.8 395.6,202.8 392.7,170 366.9,170 						"/>
						<polygon class="st2" points="371.6,200.1 393.3,200.1 390.9,172.7 369.2,172.7 						"/>
					</g>
					<g>
						<polygon class="st5" points="357.7,207 359.9,181.5 327.5,181.5 325.3,207 						"/>
						<polygon class="st4" points="357.7,207 359.9,181.5 361.6,181.5 359.4,207 						"/>
						<polygon class="st0" points="354.6,204.4 356.4,184.1 330.6,184.1 328.8,204.4 						"/>
						<polygon class="st1" points="352.6,202.8 354.1,185.8 332.6,185.8 331.1,202.8 						"/>
					</g>
				</g>
			</g>
			<g>
				<path class="st0" d="M283,322.7c0,6.8-1.1,11.1-2.8,13.9c-1.3,2.1-3.8,3.3-6.3,3.3h-9.8c-2.5,0-4.9-1.2-6.3-3.3
					c-1.8-2.8-2.8-7.2-2.8-13.9c0-9.8,4.3-17.7,5.7-23.9c0.5-2.3-1.2-9.2-1.2-9.2h19c0,0-1.7,6.9-1.2,9.2
					C278.7,305.1,283,312.9,283,322.7z"/>
				<path class="st1" d="M315.3,283c0-8.5-13.3-5-16.7-18.2c-1.3-5,9.6-16.3,9.6-16.3h-33.8c0,0,10.9,11.3,9.6,16.3
					c-3.4,13.2-16.7,9.7-16.7,18.2c0,9.4,18.8,28.9,19.7,50.9c0.1,2-3.5,6-3.5,6h15.7c0,0-3.6-4.1-3.5-6
					C296.5,311.9,315.3,292.4,315.3,283z"/>
				<path class="st5" d="M305.1,305.2c2-4.1-2.1-18.2-2.1-18.2h14.7c0,0-4.1,14.1-2.1,18.2c1.4,2.9,4.5,4.8,4.5,8.2v20.8
					c0,5.4-4.4,5.8-9.8,5.8s-9.8-0.4-9.8-5.8v-20.8C300.5,309.9,303.7,308.1,305.1,305.2z"/>
			</g>
			<g>
				<g>
					<path class="st2" d="M137.5,182.5c-8.4-3.6-13.2-11.3-10.7-17.2c2.5-5.8,11.4-7.6,19.9-3.9c8.4,3.6,13.2,11.4,10.7,17.2
						C154.8,184.4,145.9,186.1,137.5,182.5z M144.2,167c-3.9-1.7-8.1-0.9-9.3,1.8c-1.2,2.7,1.1,6.3,5,8c3.9,1.7,8.1,0.9,9.3-1.8
						C150.4,172.3,148.1,168.7,144.2,167z"/>
				</g>
				<g>
					<g>
						<path class="st2" d="M147.4,167.3l-4-1.7l24.2-55.9c0.5-1.1,1.8-1.6,2.9-1.1l0,0c1.1,0.5,1.6,1.8,1.1,2.9L147.4,167.3z"/>
					</g>
					<g>
						<g>
							<polygon class="st2" points="173.4,116.8 165.8,113.4 167.5,109.4 175.2,112.8 							"/>
						</g>
						<g>
							<polygon class="st2" points="169.6,121.2 164.1,118.9 165.9,114.9 171.4,117.2 							"/>
						</g>
						<g>
							
								<rect x="163.7" y="122.5" transform="matrix(0.3974 -0.9177 0.9177 0.3974 -15.5261 228.0465)" class="st2" width="4.4" height="6.7"/>
						</g>
						<g>
							<path class="st2" d="M148.9,161.3l-2.2-1c-1.1-0.5-1.6-1.7-1.1-2.8l0,0c0.5-1.1,1.7-1.6,2.8-1.1l2.2,1
								c1.1,0.5,1.6,1.7,1.1,2.8l0,0C151.3,161.3,150,161.8,148.9,161.3z"/>
						</g>
					</g>
				</g>
			</g>
			<g>
				<g>
					<path class="st2" d="M320.8,142.1c6.7,4.4,8.4,13.6,3.8,20.5c-4.6,6.8-13.7,8.8-20.4,4.3c-6.7-4.4-8.4-13.6-3.8-20.5
						C305,139.6,314.1,137.7,320.8,142.1z M308.6,160.3c3.1,2.1,7.4,1.2,9.5-2c2.1-3.2,1.3-7.5-1.8-9.6c-3.1-2.1-7.4-1.2-9.5,2
						C304.7,153.9,305.5,158.2,308.6,160.3z"/>
				</g>
				<g>
					<g>
						<path class="st2" d="M307,158.6l4.1,2.8l-29.6,45.3c-0.8,1.1-2.3,1.5-3.4,0.7h0c-1.1-0.8-1.5-2.3-0.7-3.4L307,158.6z"/>
					</g>
					<g>
						<g>
							<path class="st2" d="M277.6,194l8.7,5.8l-4.3,6.5l-8.7-5.9c-1.3-0.8-1.6-2.5-0.8-3.8l1.3-2
								C274.6,193.5,276.3,193.1,277.6,194z"/>
						</g>
					</g>
				</g>
			</g>
			<g>
				<g>
					<g>
						<g>
							<path class="st5" d="M199.9,55.5l-4.6,11.9c-0.4,1.1-1.6,1.6-2.7,1.2c-1.1-0.4-1.6-1.6-1.2-2.7L196,54
								c1.5-3.8-0.4-8.2-4.3-9.7l-4.3-1.6c-3.8-1.5-8.2,0.4-9.7,4.3l-1.9,4.9l-3.9-1.5l1.9-4.9c2.3-6,9.1-9,15.1-6.7l4.3,1.6
								C199.2,42.8,202.2,49.5,199.9,55.5z"/>
						</g>
						<g>
							<g>
								<path class="st2" d="M199.1,57.4c-0.3-0.4-0.7-0.7-1.2-0.9l-23.2-9c-0.5-0.2-1.1-0.2-1.6-0.1c-0.9,0.2-1.7,0.8-2.1,1.8
									l-9,23.2c-0.6,1.5,0.2,3.1,1.6,3.7l23.2,9c1.5,0.6,3.1-0.2,3.7-1.6l9-23.2C199.9,59.2,199.7,58.1,199.1,57.4z M181.5,75.3
									l-7.4-2.8l3.9-6.8c-0.5-1-0.6-2.2-0.2-3.3c0.8-2.1,3.2-3.2,5.3-2.3c2.1,0.8,3.2,3.2,2.3,5.3c-0.4,1.1-1.3,1.9-2.3,2.3
									L181.5,75.3z"/>
							</g>
						</g>
					</g>
				</g>
			</g>
		</g>
		<g>
			
				<rect x="41.5" y="226.8" transform="matrix(-1 -1.224647e-16 1.224647e-16 -1 268.0789 553.1622)" class="st2" width="185.1" height="99.6"/>
			
				<rect x="211.8" y="330.5" transform="matrix(-1 -1.224647e-16 1.224647e-16 -1 435.1598 669.8587)" class="st2" width="11.6" height="8.8"/>
			
				<rect x="27.3" y="219.4" transform="matrix(-1 -1.224647e-16 1.224647e-16 -1 66.3205 558.6782)" class="st2" width="11.6" height="120"/>
			<path class="st5" d="M38.8,219.4v120H45v-6.7h178.4v6.7h6.2v-120h-3.1h-3.1H45h-3.1H38.8z M45,230.2h86.1v41.7H45V230.2z
				 M223.4,321.7h-86.1v-91.5h86.1V321.7z M45,321.7v-43.7h86.1v43.7H45z"/>
			
				<rect x="137.3" y="234.7" transform="matrix(-1 -1.224647e-16 1.224647e-16 -1 354.9036 556.4373)" class="st1" width="80.3" height="87"/>
			<path class="st3" d="M141,275.6c0,2.1,1.7,3.7,3.7,3.7c2.1,0,3.7-1.7,3.7-3.7s-1.7-3.7-3.7-3.7C142.6,271.9,141,273.6,141,275.6z
				"/>
			<path class="st4" d="M144.7,279.3c1.5,0,2.8-0.9,3.4-2.2c0.2,0.5,0.3,1,0.3,1.6c0,2.1-1.7,3.7-3.7,3.7s-3.7-1.7-3.7-3.7
				c0-0.6,0.1-1.1,0.3-1.6C141.9,278.4,143.2,279.3,144.7,279.3z"/>
			<polygon class="st3" points="186.5,321.7 167.3,321.7 158.2,234.7 177.3,234.7 			"/>
			<polygon class="st3" points="162.4,321.7 158.6,321.7 149.4,234.7 153.3,234.7 			"/>
			
				<rect x="111.7" y="234.6" transform="matrix(-1 -1.224647e-16 1.224647e-16 -1 231.0245 506.4491)" class="st3" width="7.6" height="37.2"/>
			
				<rect x="80.3" y="234.6" transform="matrix(-1 -1.224647e-16 1.224647e-16 -1 168.1311 506.4491)" class="st1" width="7.6" height="37.2"/>
			
				<rect x="104.1" y="237.2" transform="matrix(-1 -1.224647e-16 1.224647e-16 -1 215.8556 509.0656)" class="st1" width="7.6" height="34.6"/>
			
				<rect x="87.9" y="237.2" transform="matrix(-1 -1.224647e-16 1.224647e-16 -1 183.3 509.0656)" class="st3" width="7.6" height="34.6"/>
			
				<rect x="95.4" y="234.6" transform="matrix(-1 -1.224647e-16 1.224647e-16 -1 195.7856 506.4491)" class="st0" width="4.9" height="37.2"/>
			
				<rect x="100.3" y="237.2" transform="matrix(-1 -1.224647e-16 1.224647e-16 -1 204.4789 509.0656)" class="st3" width="3.8" height="34.6"/>
			
				<rect x="72.7" y="234.6" transform="matrix(-1 -1.224647e-16 1.224647e-16 -1 152.9623 506.4491)" class="st0" width="7.6" height="37.2"/>
			
				<rect x="65.1" y="237.2" transform="matrix(-1 -1.224647e-16 1.224647e-16 -1 137.7935 509.0656)" class="st2" width="7.6" height="34.6"/>
			
				<rect x="48.8" y="237.2" transform="matrix(-1 -1.224647e-16 1.224647e-16 -1 105.2379 509.0656)" class="st2" width="7.6" height="34.6"/>
			
				<rect x="56.4" y="234.6" transform="matrix(-1 -1.224647e-16 1.224647e-16 -1 117.7235 506.4491)" class="st3" width="4.9" height="37.2"/>
			
				<rect x="61.3" y="237.2" transform="matrix(-1 -1.224647e-16 1.224647e-16 -1 126.4169 509.0656)" class="st0" width="3.8" height="34.6"/>
			
				<rect x="45" y="235.5" transform="matrix(-1 -1.224647e-16 1.224647e-16 -1 93.8613 507.331)" class="st0" width="3.8" height="36.4"/>
			<rect x="45" y="284.5" class="st0" width="7.6" height="37.2"/>
			<rect x="76.5" y="284.5" class="st3" width="7.6" height="37.2"/>
			<rect x="52.6" y="287.1" class="st3" width="7.6" height="34.6"/>
			<rect x="68.9" y="287.1" class="st0" width="7.6" height="34.6"/>
			<rect x="64" y="284.5" class="st3" width="4.9" height="37.2"/>
			<rect x="60.2" y="287.1" class="st1" width="3.8" height="34.6"/>
			<rect x="84.1" y="284.5" class="st0" width="7.6" height="37.2"/>
			<rect x="91.6" y="287.1" class="st1" width="7.6" height="34.6"/>
			<rect x="107.9" y="287.1" class="st2" width="7.6" height="34.6"/>
			<rect x="103" y="284.5" class="st3" width="4.9" height="37.2"/>
			<rect x="119.3" y="284.5" class="st3" width="4.9" height="37.2"/>
			<rect x="99.2" y="287.1" class="st0" width="3.8" height="34.6"/>
			<rect x="115.5" y="285.4" class="st0" width="3.8" height="36.4"/>
		</g>
		<g>
			<g>
				<g>
					<g>
						<g>
							<g>
								<path class="st2" d="M53.5,155.2c0,0-1.3,0.6-1.9,1.8c-0.6,1.2,1.2,3.4,1.2,3.4s1.5,1.1,3,0.4c1.5-0.7,1.5-0.7,1.5-0.7
									s-2.6-4.5-3.8-4.5L53.5,155.2z"/>
							</g>
						</g>
						<g>
							<g>
								<path class="st2" d="M59.9,155.2c0.2,2.1-1.1,4.8-3,5c-1.9,0.2-3.6-2.2-3.8-4.4c-0.2-2.1,1.3-2.3,3.2-2.5
									C58.2,153.1,59.8,153.1,59.9,155.2z"/>
							</g>
							<g>
								<path class="st2" d="M54.4,154.6c0,0,1.4,1.2,4.4,0.5C58.8,155,54.1,158.2,54.4,154.6z"/>
							</g>
							<g>
								<path class="st2" d="M55.7,154.1c0,0,1.7-0.3,1.7,0.4c0,0,1.4-0.1,1.2-0.7C58.4,153.3,55.7,154.1,55.7,154.1z"/>
							</g>
							<g class="st6">
								<path class="st3" d="M54.4,154.6c0,0,1.4,1.2,4.4,0.5C58.8,155,54.1,158.2,54.4,154.6z"/>
							</g>
							<g class="st6">
								<path class="st3" d="M55.7,154.1c0,0,1.7-0.3,1.7,0.4c0,0,1.4-0.1,1.2-0.7C58.4,153.3,55.7,154.1,55.7,154.1z"/>
							</g>
						</g>
						<g>
							<path class="st2" d="M53.7,160.8c0.6,1,1.8,1.5,3,1.3c1.1-0.1,2.2-0.8,2.8-1.8c0.7-0.9,1-2.1,1-3.2c0-0.3,0-1-0.3-1.2
								c-0.4-0.1-0.6,0.4-0.7,0.6c-0.5,0.7-1,1.3-1.6,1.9c-0.6,0.5-1.2,1-1.9,1.4C55.8,160,53.9,161,53.7,160.8z"/>
						</g>
						<g>
							<path class="st2" d="M61.9,156.6c0.4,0.9,0.2,1.9-0.3,2.6c-0.4,0.5-0.9,0.8-1.4,1.2c-0.4,0.2-0.8,0.4-1.2,0.2
								c-0.4-0.2-0.4-0.8-0.3-1.3c0.1-0.7,0.3-1.4,0.5-2.1c0.1-0.6,0.2-1.5,0.6-2c0.3-0.4,0.7-0.2,1.2,0.1
								C61.3,155.7,61.7,156.1,61.9,156.6z"/>
						</g>
						<g class="st6">
							<path class="st3" d="M54.2,159.6c-0.7,0-1.4-0.5-1.7-1.2c-0.2-0.5-0.2-1.8,0.5-1.9C53.3,157.6,53.5,158.7,54.2,159.6z"/>
						</g>
						<g class="st6">
							<path class="st3" d="M59.2,159.6c0.7-0.2,1.3-0.8,1.5-1.4c0.1-0.4,0-2.3-0.6-1.5c-0.2,0.3-0.2,1.1-0.3,1.5
								C59.6,158.6,59.4,159.1,59.2,159.6z"/>
						</g>
						<g class="st6">
							<path class="st3" d="M56.5,160.8c0.5,0.5,1.4,0.5,1.9,0.1c-0.1,0.4-1.3,0.7-1.6,0.8c-1,0.3-1.5-0.1-2.4-0.5
								C54.5,161.1,55.9,161.3,56.5,160.8z"/>
						</g>
					</g>
					<g>
						<g>
							<polygon class="st4" points="54.9,199.7 55,170.9 56.4,162.1 57,162.2 55.5,170.9 55.4,200.3 							"/>
						</g>
					</g>
					<g>
						<path class="st4" d="M55.5,170.7l-0.5,0.3c-0.5-0.6-0.9-1.4-1.3-2.3c-0.7-1.4-1.6-2.9-2.8-4.3l0.4-0.4c1.3,1.4,2.2,3,2.9,4.4
							C54.6,169.4,55,170.2,55.5,170.7z"/>
					</g>
					<g>
						<path class="st2" d="M55.8,166.9c0.8-0.2,1.5-0.7,1.9-1.3c0.5-0.7,0.7-1.7,0.8-2.5c-1,0.3-2.1-0.2-3.1-0.1
							c-0.8,0.1-1.6,0.6-2,1.3c-0.5,0.9-0.8,2-0.3,2.4C53.6,167,54.8,167.1,55.8,166.9z"/>
					</g>
					<g>
						<g>
							<path class="st2" d="M52,164.9c-0.9,0.6-2.1,0.7-3.1,0.4c-1-0.3-1.3-1.9-1.7-2.9c0.9-0.2,3.3-0.1,3.9,0
								c0.5,0.1,1.1,0.3,1.4,0.8c0.3,0.5,0.2,1.1-0.2,1.5C52.1,164.6,52,164.9,52,164.9z"/>
						</g>
					</g>
					<g>
						<g>
							<path class="st2" d="M47.2,166.6c0.6-0.8,2.2-1.3,3.2-1.1c1,0.2,1.8,0.9,2.2,1.7c-0.3,0.6-1,1-1.6,1c-0.7,0-1.3-0.2-2-0.3
								c-0.6-0.2-1.3-0.4-2-0.3L47.2,166.6z"/>
						</g>
					</g>
				</g>
				<g>
					<g>
						<g>
							<g>
								<path class="st2" d="M66.5,161.6c0,0,1,0.9,1.3,2.2c0.2,1.3-2.2,2.9-2.2,2.9s-1.8,0.6-3-0.5c-1.2-1.1-1.2-1.1-1.2-1.1
									s3.8-3.5,5-3.2L66.5,161.6z"/>
							</g>
						</g>
						<g>
							<g>
								<path class="st2" d="M60.3,159.7c-0.8,2-0.3,4.9,1.4,5.6c1.8,0.7,4.1-1.1,4.9-3c0.8-2-0.6-2.6-2.4-3.3
									C62.6,158.2,61.1,157.7,60.3,159.7z"/>
							</g>
							<g>
								<path class="st2" d="M65.8,160.7c0,0-1.7,0.7-4.4-0.8C61.5,159.9,65,164.2,65.8,160.7z"/>
							</g>
							<g>
								<path class="st2" d="M64.7,159.9c0,0-1.5-0.8-1.7-0.1c0,0-1.3-0.5-1-1C62.4,158.3,64.7,159.9,64.7,159.9z"/>
							</g>
							<g class="st6">
								<path class="st3" d="M65.8,160.7c0,0-1.7,0.7-4.4-0.8C61.5,159.9,65,164.2,65.8,160.7z"/>
							</g>
							<g class="st6">
								<path class="st3" d="M64.7,159.9c0,0-1.5-0.8-1.7-0.1c0,0-1.3-0.5-1-1C62.4,158.3,64.7,159.9,64.7,159.9z"/>
							</g>
						</g>
						<g>
							<path class="st2" d="M64.6,166.9c-0.9,0.8-2.2,0.9-3.2,0.4c-1-0.5-1.8-1.4-2.2-2.5c-0.4-1.1-0.3-2.3,0-3.4
								c0.1-0.3,0.3-1,0.7-1c0.4,0,0.4,0.5,0.5,0.8c0.3,0.8,0.6,1.5,1,2.2c0.4,0.7,0.9,1.3,1.4,1.9C62.9,165.5,64.5,167,64.6,166.9z
								"/>
						</g>
						<g>
							<path class="st2" d="M58.1,160.4c-0.6,0.7-0.8,1.8-0.5,2.6c0.2,0.6,0.6,1.1,1,1.5c0.3,0.3,0.7,0.7,1.1,0.5
								c0.4-0.1,0.6-0.7,0.6-1.1c0.1-0.7,0.1-1.4,0.2-2.1c0-0.6,0.2-1.5,0-2.1c-0.2-0.5-0.7-0.4-1.2-0.2
								C58.9,159.8,58.4,160.1,58.1,160.4z"/>
						</g>
						<g class="st6">
							<path class="st3" d="M64.5,165.6c0.7,0.2,1.5-0.1,2-0.7c0.3-0.4,0.7-1.6,0.1-2C66,164,65.4,164.9,64.5,165.6z"/>
						</g>
						<g class="st6">
							<path class="st3" d="M59.8,164.1c-0.6-0.4-1-1.1-1-1.8c0-0.4,0.7-2.2,1-1.3c0.1,0.3-0.2,1.1-0.2,1.5
								C59.6,163,59.7,163.6,59.8,164.1z"/>
						</g>
						<g class="st6">
							<path class="st3" d="M62,166c-0.6,0.3-1.5,0-1.9-0.5c0,0.4,1,1,1.3,1.2c0.8,0.5,1.4,0.3,2.4,0.2
								C63.8,166.9,62.4,166.7,62,166z"/>
						</g>
					</g>
					<g>
						<g>
							<polygon class="st4" points="54,195.4 54.4,194.3 54.9,192.7 55.4,190.8 59.9,176 60.5,171.8 61,168 61.1,167.3 61.4,167.3 
								61.4,167.3 61.7,167.3 61.7,167.4 61.6,168.1 61,172.1 60.6,175.4 60.5,176.1 60.5,176.3 55.4,192.8 54.9,194.6 54.6,195.5 
								54.3,196.6 							"/>
						</g>
					</g>
					<g>
						<path class="st4" d="M60.1,175.9l0.3,0.5c0.6-0.4,1.2-1,1.9-1.8c1.1-1.1,2.4-2.4,4-3.3l-0.3-0.5c-1.7,1-2.9,2.3-4.1,3.4
							C61.2,174.9,60.6,175.5,60.1,175.9z"/>
					</g>
					<g>
						<path class="st2" d="M60.9,172.1c-0.7-0.4-1.2-1.1-1.4-1.8c-0.3-0.9-0.2-1.8-0.1-2.7c0.9,0.6,2,0.4,3,0.8
							c0.8,0.3,1.3,1,1.5,1.8c0.2,1,0.1,2.1-0.4,2.4C63,172.8,61.8,172.6,60.9,172.1z"/>
					</g>
					<g>
						<g>
							<path class="st2" d="M65.1,171.3c0.7,0.8,1.8,1.3,2.9,1.3c1.1,0,1.8-1.4,2.5-2.3c-0.8-0.5-3.2-1-3.7-1.1
								c-0.5-0.1-1.1,0-1.5,0.3c-0.4,0.4-0.6,1-0.2,1.5C65.1,170.9,65.1,171.3,65.1,171.3z"/>
						</g>
					</g>
					<g>
						<g>
							<path class="st2" d="M69.1,174.3c-0.4-0.9-1.7-1.9-2.7-2c-1-0.1-2,0.3-2.6,0.9c0.1,0.7,0.6,1.2,1.2,1.5
								c0.6,0.2,1.3,0.2,2,0.2c0.7,0,1.4,0,2,0.2L69.1,174.3z"/>
						</g>
					</g>
				</g>
				<g>
					<g>
						<g>
							<g>
								<path class="st2" d="M46.2,160.5c0,0-1.1,0.8-1.5,2.1c-0.4,1.3,1.8,3.1,1.8,3.1s1.7,0.8,3-0.2c1.4-0.9,1.4-0.9,1.4-0.9
									s-3.3-3.9-4.6-3.8L46.2,160.5z"/>
							</g>
						</g>
						<g>
							<g>
								<path class="st2" d="M52.6,159.3c0.6,2.1-0.3,4.9-2.1,5.4c-1.8,0.5-4-1.6-4.6-3.6c-0.6-2.1,0.9-2.5,2.7-3
									S52,157.2,52.6,159.3z"/>
							</g>
							<g>
								<path class="st2" d="M47,159.6c0,0,1.6,0.9,4.4-0.3C51.5,159.3,47.4,163.2,47,159.6z"/>
							</g>
							<g>
								<path class="st2" d="M48.2,159c0,0,1.6-0.6,1.7,0.1c0,0,1.4-0.3,1.1-0.9C50.7,157.7,48.2,159,48.2,159z"/>
							</g>
							<g class="st6">
								<path class="st3" d="M47,159.6c0,0,1.6,0.9,4.4-0.3C51.5,159.3,47.4,163.2,47,159.6z"/>
							</g>
							<g class="st6">
								<path class="st3" d="M48.2,159c0,0,1.6-0.6,1.7,0.1c0,0,1.4-0.3,1.1-0.9C50.7,157.7,48.2,159,48.2,159z"/>
							</g>
						</g>
						<g>
							<path class="st2" d="M47.5,165.9c0.8,0.9,2.1,1.1,3.2,0.8c1.1-0.3,2-1.2,2.5-2.3c0.5-1,0.6-2.2,0.4-3.4c0-0.3-0.1-1-0.5-1.1
								c-0.4,0-0.5,0.5-0.6,0.8c-0.3,0.7-0.7,1.5-1.2,2.1c-0.5,0.6-1,1.2-1.7,1.7C49.3,164.7,47.6,166.1,47.5,165.9z"/>
						</g>
						<g>
							<path class="st2" d="M54.7,160.3c0.5,0.8,0.6,1.8,0.2,2.7c-0.3,0.5-0.7,1-1.2,1.4c-0.3,0.3-0.7,0.6-1.1,0.4
								c-0.4-0.2-0.5-0.7-0.5-1.2c0-0.7,0-1.4,0.1-2.1c0-0.6,0-1.5,0.2-2c0.2-0.5,0.7-0.3,1.2-0.1C54,159.5,54.4,159.9,54.7,160.3z"
								/>
						</g>
						<g class="st6">
							<path class="st3" d="M47.8,164.7c-0.7,0.1-1.5-0.3-1.9-0.9c-0.3-0.5-0.5-1.7,0.1-2C46.5,162.9,46.9,163.8,47.8,164.7z"/>
						</g>
						<g class="st6">
							<path class="st3" d="M52.6,163.7c0.6-0.3,1.1-1,1.2-1.7c0-0.4-0.4-2.3-0.9-1.4c-0.1,0.3,0,1.1,0,1.5
								C52.9,162.7,52.8,163.2,52.6,163.7z"/>
						</g>
						<g class="st6">
							<path class="st3" d="M50.2,165.4c0.6,0.4,1.4,0.2,1.9-0.3c0,0.4-1.1,0.9-1.4,1.1c-0.9,0.4-1.5,0.1-2.4-0.1
								C48.3,166.1,49.7,166,50.2,165.4z"/>
						</g>
					</g>
					<g>
						<g>
							<polygon class="st4" points="55.6,204 50.5,175.6 50.4,166.7 50.9,166.7 51.1,175.6 56.2,204.4 							"/>
						</g>
					</g>
					<g>
						<path class="st4" d="M51,175.4l-0.4,0.4c-0.6-0.5-1.1-1.2-1.7-2c-1-1.2-2.1-2.6-3.5-3.7l0.3-0.5c1.5,1.2,2.7,2.6,3.6,3.8
							C49.9,174.2,50.4,174.9,51,175.4z"/>
					</g>
					<g>
						<path class="st2" d="M50.6,171.5c0.7-0.3,1.3-0.9,1.6-1.7c0.4-0.8,0.4-1.8,0.4-2.7c-0.9,0.5-2.1,0.2-3.1,0.5
							c-0.8,0.2-1.5,0.9-1.7,1.7c-0.4,1-0.4,2.1,0.2,2.4C48.4,172,49.6,171.9,50.6,171.5z"/>
					</g>
					<g>
						<g>
							<path class="st2" d="M46.5,170.2c-0.8,0.7-1.9,1.1-3,1c-1.1-0.1-1.7-1.6-2.2-2.5c0.9-0.4,3.3-0.7,3.8-0.7
								c0.5,0,1.1,0.1,1.5,0.5c0.4,0.4,0.4,1.1,0.1,1.5C46.6,169.9,46.5,170.2,46.5,170.2z"/>
						</g>
					</g>
					<g>
						<g>
							<path class="st2" d="M42.1,172.7c0.5-0.9,1.9-1.7,2.9-1.7c1,0,1.9,0.5,2.4,1.2c-0.1,0.7-0.8,1.1-1.4,1.3
								c-0.7,0.2-1.3,0.1-2,0c-0.7-0.1-1.4-0.2-2,0L42.1,172.7z"/>
						</g>
					</g>
				</g>
			</g>
			<g>
				<path class="st5" d="M57.7,186.6h-6c-0.4,0-0.8,0.3-1,0.7c-0.5,1.6-1.5,5.6-1.5,12.1c0,7.1,1.8,16.4,2.4,19.2
					c0.1,0.5,0.5,0.8,1,0.8h4.2c0.5,0,0.9-0.3,1-0.8c0.6-2.8,2.4-12.1,2.4-19.2c0-6.4-1-10.5-1.5-12.1
					C58.5,186.9,58.1,186.6,57.7,186.6z"/>
			</g>
		</g>
	</g>
</g>
<g id="Background_Simple" class="st7">
	<g class="st8">
		<path class="st9" d="M60.7,193.4c14.5-3.2,29.7,0.5,44.1,5.2c14.4,4.7,28.7,10.4,43.6,11.2c33.9,1.9,63.7-21.3,86.1-47.3
			c22.4-26,41-56.3,68.5-76.3c12.1-8.8,27-15.5,41.6-11.7c11.2,2.9,20.4,11.7,28.3,20.7c14.4,16.5,26.5,35.1,35.8,55.1
			c7.9,16.9,13.8,36.9,6.5,53.7c-6.5,15.1-21.9,23.3-36.5,29.8C277.9,278.9,167,296.2,56.8,305.8c-4.4,0.4-9.1,0.7-13.1-1.4
			c-5.6-3-8.1-9.8-9.8-16.1C25.2,255.8,19.8,202.4,60.7,193.4z"/>
		<path class="st10" d="M60.7,193.4c14.5-3.2,29.7,0.5,44.1,5.2c14.4,4.7,28.7,10.4,43.6,11.2c33.9,1.9,63.7-21.3,86.1-47.3
			c22.4-26,41-56.3,68.5-76.3c12.1-8.8,27-15.5,41.6-11.7c11.2,2.9,20.4,11.7,28.3,20.7c14.4,16.5,26.5,35.1,35.8,55.1
			c7.9,16.9,13.8,36.9,6.5,53.7c-6.5,15.1-21.9,23.3-36.5,29.8C277.9,278.9,167,296.2,56.8,305.8c-4.4,0.4-9.1,0.7-13.1-1.4
			c-5.6-3-8.1-9.8-9.8-16.1C25.2,255.8,19.8,202.4,60.7,193.4z"/>
	</g>
</g>
<g id="Shadow">
	<ellipse id="_x3C_Path_x3E__359_" class="st1" cx="222.3" cy="372.6" rx="193.9" ry="11.3"/>
</g>
<g id="Plant">
	<g>
		<g>
			<g>
				<g>
					<path class="st11" d="M93.1,333.7c-0.3,0-0.6-0.3-0.6-0.7c0.7-29.4,2.3-77.6,2.3-77.9c0.1-0.3,0.5-0.5,0.8-0.4
						c0.3,0.1,0.5,0.5,0.4,0.8c0,0.1-1.5,48.4-2.3,77.5C93.8,333.4,93.5,333.7,93.1,333.7C93.1,333.7,93.1,333.7,93.1,333.7z"/>
				</g>
				<g>
					<g>
						<path class="st12" d="M89.2,235.6c0.2,2.3,3,10.1,5.2,9.9c2.3-0.2,3.2-8.5,3-10.8c-0.2-2.3-2.3-3.9-4.5-3.7
							C90.5,231.3,88.9,233.3,89.2,235.6z"/>
						<path class="st12" d="M100.1,260.3c-0.2-2.3-3-10.1-5.2-9.9c-2.3,0.2-3.2,8.5-3,10.8c0.2,2.3,2.3,3.9,4.5,3.7
							C98.7,264.6,100.4,262.6,100.1,260.3z"/>
						<path class="st12" d="M82.3,253.4c2.3-0.2,10.1-3,9.9-5.2c-0.2-2.3-8.5-3.2-10.8-3c-2.3,0.2-3.9,2.3-3.7,4.5
							C78,252.1,80,253.7,82.3,253.4z"/>
						<path class="st12" d="M107,242.5c-2.3,0.2-10.1,3-9.9,5.2c0.2,2.3,8.5,3.2,10.8,3c2.3-0.2,3.9-2.3,3.7-4.5
							C111.3,243.8,109.3,242.2,107,242.5z"/>
						<path class="st12" d="M82,243.1c1.8,1.4,9.2,5.1,10.7,3.3c1.4-1.8-3.7-8.3-5.5-9.7c-1.8-1.4-4.4-1.1-5.8,0.6
							C80,239.1,80.2,241.7,82,243.1z"/>
						<path class="st12" d="M107.3,252.8c-1.8-1.4-9.2-5.1-10.7-3.3c-1.4,1.8,3.7,8.3,5.5,9.7c1.8,1.4,4.4,1.1,5.8-0.6
							C109.3,256.8,109.1,254.2,107.3,252.8z"/>
						<path class="st12" d="M89.8,260.6c1.4-1.8,5.1-9.2,3.3-10.7c-1.8-1.4-8.3,3.7-9.7,5.5c-1.4,1.8-1.1,4.4,0.6,5.8
							C85.8,262.6,88.3,262.4,89.8,260.6z"/>
						<path class="st12" d="M99.5,235.3c-1.4,1.8-5.1,9.2-3.3,10.7c1.8,1.4,8.3-3.7,9.7-5.5c1.4-1.8,1.1-4.4-0.6-5.8
							C103.5,233.3,100.9,233.5,99.5,235.3z"/>
					</g>
					<g class="st13">
						<path class="st14" d="M89.2,235.6c0.2,2.3,3,10.1,5.2,9.9c2.3-0.2,3.2-8.5,3-10.8c-0.2-2.3-2.3-3.9-4.5-3.7
							C90.5,231.3,88.9,233.3,89.2,235.6z"/>
						<path class="st14" d="M100.1,260.3c-0.2-2.3-3-10.1-5.2-9.9c-2.3,0.2-3.2,8.5-3,10.8c0.2,2.3,2.3,3.9,4.5,3.7
							C98.7,264.6,100.4,262.6,100.1,260.3z"/>
						<path class="st14" d="M82.3,253.4c2.3-0.2,10.1-3,9.9-5.2c-0.2-2.3-8.5-3.2-10.8-3c-2.3,0.2-3.9,2.3-3.7,4.5
							C78,252.1,80,253.7,82.3,253.4z"/>
						<path class="st14" d="M107,242.5c-2.3,0.2-10.1,3-9.9,5.2c0.2,2.3,8.5,3.2,10.8,3c2.3-0.2,3.9-2.3,3.7-4.5
							C111.3,243.8,109.3,242.2,107,242.5z"/>
						<path class="st14" d="M82,243.1c1.8,1.4,9.2,5.1,10.7,3.3c1.4-1.8-3.7-8.3-5.5-9.7c-1.8-1.4-4.4-1.1-5.8,0.6
							C80,239.1,80.2,241.7,82,243.1z"/>
						<path class="st14" d="M107.3,252.8c-1.8-1.4-9.2-5.1-10.7-3.3c-1.4,1.8,3.7,8.3,5.5,9.7c1.8,1.4,4.4,1.1,5.8-0.6
							C109.3,256.8,109.1,254.2,107.3,252.8z"/>
						<path class="st14" d="M89.8,260.6c1.4-1.8,5.1-9.2,3.3-10.7c-1.8-1.4-8.3,3.7-9.7,5.5c-1.4,1.8-1.1,4.4,0.6,5.8
							C85.8,262.6,88.3,262.4,89.8,260.6z"/>
						<path class="st14" d="M99.5,235.3c-1.4,1.8-5.1,9.2-3.3,10.7c1.8,1.4,8.3-3.7,9.7-5.5c1.4-1.8,1.1-4.4-0.6-5.8
							C103.5,233.3,100.9,233.5,99.5,235.3z"/>
					</g>
					<path class="st15" d="M89.8,248.5c0.3,2.7,2.7,4.6,5.4,4.3c2.7-0.3,4.6-2.7,4.3-5.4c-0.3-2.7-2.7-4.6-5.4-4.3
						C91.4,243.4,89.5,245.8,89.8,248.5z"/>
				</g>
			</g>
			<g>
				<path class="st16" d="M90.3,312.2c-5.6,0.1-15.3-5.1-19.1-10.2c-3.8-5.2,6.9-2,5.8-6c-1.1-4.1-14.4-1-16.9-6.8
					c-2.5-5.8,7.1-4.5,6.7-7.5c-0.4-3-10.3-2.3-13.5-8.5c-3.2-6.2,5.5-2.7,4.2-5.3c-1.4-2.6-12.4-13.3-7.8-15.6
					c4.6-2.3,14.9,8.9,18.3,10.2c3.4,1.2,4.2-6.5,8.7-2.8c4.5,3.7,1.2,19.9,6.5,22c3.9,1.6,2.2-5.8,6.8-4
					C97.9,281,92.6,312.1,90.3,312.2z"/>
				<g class="st6">
					<path class="st16" d="M90.3,312.2c-5.6,0.1-15.3-5.1-19.1-10.2c-3.8-5.2,6.9-2,5.8-6c-1.1-4.1-14.4-1-16.9-6.8
						c-2.5-5.8,7.1-4.5,6.7-7.5c-0.4-3-10.3-2.3-13.5-8.5c-3.2-6.2,5.5-2.7,4.2-5.3c-1.4-2.6-12.4-13.3-7.8-15.6
						c4.6-2.3,14.9,8.9,18.3,10.2c3.4,1.2,4.2-6.5,8.7-2.8c4.5,3.7,1.2,19.9,6.5,22c3.9,1.6,2.2-5.8,6.8-4
						C97.9,281,92.6,312.1,90.3,312.2z"/>
				</g>
			</g>
			<g>
				<g>
					<path class="st12" d="M98.4,305c0.1,0.2-0.7,1,2,1.1c6.9,0.3,19-0.2,23.5-6.4c6.5-8.9-8.5-8.1-7-13c1.5-4.9,17.5-0.9,20.7-7.9
						c3.1-7-8.6-5.6-8-9.2c0.5-3.6,12.8,1.1,16.9-6.4c4-7.4-6.7-3.5-4.9-6.5c1.7-3.1,15.4-15.9,9.8-18.7
						c-5.5-2.9-18.3,10.5-22.5,11.9c-4.2,1.4-5.2-11.7-10.7-7.3c-5.5,4.4-1.9,24.2-8.4,26.6c-4.8,1.8-2.2-5.3-8.1-5
						C93.5,264.6,90.8,292.4,98.4,305z"/>
				</g>
				<g class="st17">
					<path class="st12" d="M98.4,305c0.1,0.2-0.7,1,2,1.1c6.9,0.3,19-0.2,23.5-6.4c6.5-8.9-8.5-8.1-7-13c1.5-4.9,17.5-0.9,20.7-7.9
						c3.1-7-8.6-5.6-8-9.2c0.5-3.6,12.8,1.1,16.9-6.4c4-7.4-6.7-3.5-4.9-6.5c1.7-3.1,15.4-15.9,9.8-18.7
						c-5.5-2.9-18.3,10.5-22.5,11.9c-4.2,1.4-5.2-11.7-10.7-7.3c-5.5,4.4-1.9,24.2-8.4,26.6c-4.8,1.8-2.2-5.3-8.1-5
						C93.5,264.6,90.8,292.4,98.4,305z"/>
				</g>
			</g>
			<g>
				<g>
					<g>
						<g>
							<g>
								<g>
									<g>
										<g>
											<g>
												<path class="st11" d="M93.2,329.3C93.2,329.3,93.2,329.3,93.2,329.3c-0.3,0-0.5-0.3-0.4-0.5c5.6-46,32.1-64.7,32.4-64.9
													c0.2-0.1,0.5-0.1,0.6,0.1c0.1,0.2,0.1,0.5-0.1,0.6c-0.3,0.2-26.4,18.7-32,64.3C93.7,329.1,93.5,329.3,93.2,329.3z"/>
											</g>
											<g>
												<path class="st11" d="M119.2,270.3c-0.2,0-0.3-0.1-0.4-0.3c-0.1-0.2,0.1-0.5,0.3-0.6c0.2-0.1,4.1-1.3,10.6,0.1
													c0.2,0.1,0.4,0.3,0.3,0.5c-0.1,0.2-0.3,0.4-0.5,0.3c-6.2-1.3-10.1-0.1-10.1-0.1C119.3,270.3,119.2,270.3,119.2,270.3z"
													/>
											</g>
											<g>
												<path class="st11" d="M114.3,275.9c-0.2,0-0.4-0.2-0.4-0.4c-0.1-13.9,7.9-24.8,8-24.9c0.1-0.2,0.4-0.2,0.6-0.1
													c0.2,0.1,0.2,0.4,0.1,0.6c-0.1,0.1-8,10.7-7.8,24.4C114.7,275.6,114.5,275.9,114.3,275.9
													C114.3,275.9,114.3,275.9,114.3,275.9z"/>
											</g>
											<g>
												<path class="st11" d="M106.4,287.6c-0.1,0-0.2-0.1-0.3-0.1c-0.2-0.2-0.2-0.5,0-0.6c0.1-0.1,6-5.6,13.8-2.8
													c0.2,0.1,0.4,0.3,0.3,0.6c-0.1,0.2-0.3,0.4-0.6,0.3c-7.3-2.6-12.9,2.5-12.9,2.6C106.6,287.6,106.5,287.6,106.4,287.6z"
													/>
											</g>
											<g>
												<path class="st11" d="M102.3,295.8c-0.2,0-0.3-0.1-0.4-0.3c-0.1-0.3-3-7.3-1.4-17.3c0-0.2,0.3-0.4,0.5-0.4
													c0.2,0,0.4,0.3,0.4,0.5c-1.6,9.7,1.3,16.7,1.4,16.8c0.1,0.2,0,0.5-0.2,0.6C102.4,295.8,102.3,295.9,102.3,295.8z"/>
											</g>
										</g>
									</g>
								</g>
							</g>
						</g>
					</g>
					<g>
						<g>
							<g>
								<path class="st11" d="M93.4,345.7c-0.2,0-0.4-0.2-0.4-0.4l-0.6-12.2c-1.7-40.5-29.5-68.1-29.8-68.4c-0.2-0.2-0.2-0.5,0-0.6
									c0.2-0.2,0.5-0.2,0.6,0c0.3,0.3,28.3,28.1,30.1,69l0.6,12.2C93.9,345.5,93.7,345.7,93.4,345.7
									C93.4,345.7,93.4,345.7,93.4,345.7z"/>
							</g>
							<g>
								<path class="st11" d="M74.1,280C74.1,280,74,279.9,74.1,280c-0.1,0-0.2,0-0.2-0.1l-0.1-0.1c-3.6-1.5-7.7-2.3-11.4-2.2
									c-0.3,0-0.5-0.2-0.5-0.4c0-0.2,0.2-0.4,0.4-0.5c3.9-0.1,8.1,0.7,11.8,2.3l0.1,0.1c0,0,0.1,0,0.1,0c0.2,0.1,0.3,0.3,0.2,0.5
									C74.5,279.8,74.3,280,74.1,280z"/>
							</g>
							<g>
								<path class="st11" d="M78,285.2C78,285.2,78,285.2,78,285.2c-0.3,0-0.4-0.2-0.4-0.5c1.1-12-5.1-21.8-5.2-21.9
									c-0.1-0.2-0.1-0.5,0.1-0.6c0.2-0.1,0.5-0.1,0.6,0.1c0.1,0.1,6.4,10.2,5.3,22.5C78.5,285,78.3,285.2,78,285.2z"/>
							</g>
							<g>
								<path class="st11" d="M82.1,292.1c-0.1,0-0.2,0-0.3-0.1c0,0-4.6-4.5-11.2-2.7c-0.2,0.1-0.5-0.1-0.5-0.3
									c-0.1-0.2,0.1-0.5,0.3-0.5c7.1-1.9,11.8,2.8,12,3c0.2,0.2,0.2,0.5,0,0.6C82.3,292.1,82.2,292.1,82.1,292.1z"/>
							</g>
							<g>
								<path class="st11" d="M87.2,303.5c-0.1,0-0.1,0-0.2-0.1c-0.2-0.1-0.3-0.4-0.2-0.6c0-0.1,3.1-6,2.4-14.7
									c0-0.2,0.2-0.5,0.4-0.5c0.2,0,0.5,0.2,0.5,0.4c0.7,8.9-2.4,14.9-2.5,15.1C87.6,303.4,87.4,303.5,87.2,303.5z"/>
							</g>
						</g>
					</g>
				</g>
			</g>
		</g>
		<g>
			<g>
				<path class="st18" d="M118.5,347.6c0,14.2-6.4,25.7-25.8,25.7c-18.5,0-25.8-11.5-25.8-25.7c0-5.4,1.6-10.3,4.5-14.5H114
					C116.8,337.3,118.5,342.3,118.5,347.6z"/>
				<path class="st19" d="M118.5,347.6c0,14.2-6.4,25.7-25.8,25.7c-18.5,0-25.8-11.5-25.8-25.7c0-5.4,1.6-10.3,4.5-14.5H114
					C116.8,337.3,118.5,342.3,118.5,347.6z"/>
			</g>
		</g>
	</g>
</g>
<g id="Character">
	<g>
		<g>
			<g>
				<g>
					<g>
						<g>
							<polygon class="st20" points="266.4,360.8 276.4,359.3 273.9,336 263.9,337.5 							"/>
							<g>
								<path class="st21" d="M284,359.7c0.9-0.1,1.7-0.4,2.3-1c0.3-0.3,0.4-0.8,0.2-1.2c-0.1-0.3-0.2-0.5-0.5-0.6
									c-1.3-0.5-5,2.2-5.4,2.5c-0.1,0.1-0.1,0.2-0.1,0.3c0,0.1,0.1,0.2,0.2,0.2C281.9,359.9,283,359.8,284,359.7z M285.4,357.4
									c0.1,0,0.3,0,0.5,0c0.1,0,0.2,0.1,0.2,0.2c0.1,0.3,0,0.6-0.1,0.8c-0.5,0.6-2.1,1-4.4,1C282.7,358.5,284.1,357.8,285.4,357.4
									L285.4,357.4z"/>
								<path class="st21" d="M280.9,359.9L280.9,359.9c1.2-0.8,3.2-3.3,2.8-4.4c-0.1-0.2-0.3-0.6-1-0.5c-0.5,0-0.9,0.2-1.3,0.6
									c-1.1,1.2-0.9,4-0.9,4.1c0,0.1,0,0.2,0.1,0.2C280.7,359.9,280.8,359.9,280.9,359.9z M282.6,355.4l0.1-0.1
									c0.4,0,0.5,0.1,0.5,0.2c0.2,0.7-1.1,2.6-2.2,3.5c-0.1-1.1,0.2-2.3,0.8-3.3C282,355.6,282.3,355.4,282.6,355.4L282.6,355.4z"
									/>
							</g>
							<path class="st11" d="M275.4,355.2l-8.8,2.1c-0.4,0.1-0.7,0.5-0.6,0.9l0.3,12.8c0.1,0.9,0.9,1.5,1.8,1.4c0.1,0,0.1,0,0.2,0
								c3.8-1,5.6-1.6,10.5-2.7c3-0.7,12.4-1.4,16.3-3.1c3.9-1.7,2.4-5.6,0.6-5.3c-5.7,1.2-13-1.2-17.1-4.9
								C277.9,356,276,355.1,275.4,355.2z"/>
							<polygon class="st6" points="273.9,336 275.2,348.1 265.2,349.5 263.9,337.5 							"/>
							<path class="st21" d="M279.2,343.1l-18.4,3.4c0,0-8.9-12.8-10.6-21.8c-1.8-9.4,0.1-41.6,0-42c-5.2-17.6-19.4-63.2-26.2-80
								c-3.8-9.3-6.4-15.6-6.4-15.6l1.9-0.4l15-6.2l11,2.1c0,0,33.3,67.4,36.8,92.7C284.8,294.2,279.2,343.1,279.2,343.1z"/>
							<path class="st22" d="M279.2,343.1l-18.4,3.4c0,0-8.9-12.8-10.6-21.8c-1.8-9.4,0.1-41.6,0-42c-5.2-17.6-19.4-63.2-26.2-80
								c-3.8-9.3-6.4-15.6-6.4-15.6l1.9-0.4l15-6.2l11,2.1c0,0,33.3,67.4,36.8,92.7C284.8,294.2,279.2,343.1,279.2,343.1z"/>
							<path class="st23" d="M245.8,267.4c-5.2-17.6-15.7-44.3-22.6-61.1l-4.5-16l-0.9-3.1l1.6,2.9l17.9,39.5
								C245.1,244.9,245.9,267.9,245.8,267.4z"/>
						</g>
						<g>
							<polygon class="st20" points="164.9,355.3 173.8,359.1 183.2,338.7 174.4,335 							"/>
							<g>
								<path class="st21" d="M179.6,363.3c0.7,0.4,1.5,0.6,2.4,0.5c0.4-0.1,0.7-0.4,0.9-0.8c0.1-0.2,0.1-0.5-0.1-0.7
									c-0.8-1.1-5.1-1.1-5.6-1.1c-0.1,0-0.2,0.1-0.2,0.2c0,0.1,0,0.2,0.1,0.2C177.8,362.3,178.7,362.8,179.6,363.3z M182,362.3
									c0.1,0.1,0.3,0.1,0.3,0.3c0.1,0.1,0.1,0.2,0,0.3c-0.1,0.3-0.3,0.5-0.6,0.5c-0.8,0.2-2.2-0.4-4-1.7
									C179.2,361.6,180.6,361.9,182,362.3L182,362.3z"/>
								<path class="st21" d="M177,361.7L177,361.7c1.3,0.1,4.3-0.8,4.7-1.8c0.1-0.3,0.1-0.6-0.5-1c-0.4-0.3-0.9-0.4-1.3-0.3
									c-1.5,0.3-2.9,2.6-3,2.7c0,0.1-0.1,0.1,0,0.2C176.9,361.6,177,361.6,177,361.7z M180.8,359.2l0.1,0c0.4,0.2,0.3,0.4,0.3,0.4
									c-0.2,0.6-2.3,1.4-3.7,1.5c0.6-0.9,1.4-1.7,2.4-2.1C180.3,359,180.6,359,180.8,359.2L180.8,359.2z"/>
							</g>
							<path class="st11" d="M175.4,355l-8-3.4c-0.4-0.2-0.8,0-1,0.3l-7,10c-0.4,0.8-0.1,1.7,0.6,2.1c0.1,0,0.1,0.1,0.2,0.1
								c3.5,1.4,5.3,1.9,9.6,3.8c2.7,1.2,10.4,5.9,14.3,6.8c4,0.9,5-3,3.4-3.7c-5.1-2.3-9.3-8.3-10.4-13.5
								C176.9,357,175.9,355.2,175.4,355z"/>
							<polygon class="st6" points="183.6,339 178.5,349.3 169.7,345.4 174.8,335 							"/>
							<path class="st21" d="M185.5,350.3l-17.7-9.4c0,0-3.4-12.6,0-20.6c6.5-15.5,23.5-38.2,23.6-38.6
								c4.5-17.8,12.5-66.5,15.2-84.4c1.5-9.9,2.4-12.1,2.4-12.1l1.9,0.6l27.1,0.1c0,0,5.1,41-14.5,104.4
								c-4.9,15.8-13,28.9-26.4,46.7C191.9,343.6,185.5,350.3,185.5,350.3z"/>
							<path class="st24" d="M185.5,350.3l-17.7-9.4c0,0-3.4-12.6,0-20.6c6.5-15.5,23.5-38.2,23.6-38.6
								c4.5-17.8,12.5-66.5,15.2-84.4c1.5-9.9,2.4-12.1,2.4-12.1l1.9,0.6l27.1,0.1c0,0,5.1,41-14.5,104.4
								c-4.9,15.8-13,28.9-26.4,46.7C191.9,343.6,185.5,350.3,185.5,350.3z"/>
						</g>
						<g>
							<g>
								<path class="st20" d="M261.9,152.3c0.2-3,2.2-7,4-8.8c0.6-0.6,2.7-1.5,3.9-2.2c5.9-3.9,17.6-8.7,17.6-8.7l3.6,3.2
									c0,0-7.2,6.9-11.4,10.2c-0.8,0.7-1.8,1.4-2.8,2.3c-1.9,1.5-10.6,7.3-12.2,8.7L261.9,152.3z"/>
								<path class="st20" d="M297.7,130.9l-6.7,5l-3.8-2.8c0,0,1.5-2,3.1-3.5c0.7-0.7,1.1-1.6,1.1-2.5c0-1.5,0.2-3.2,1-4.5
									c0,0,0-0.1,0-0.1c1.5-2.2,4.9-1.5,5.5,1l1,3.6C299.4,128.5,298.8,130,297.7,130.9z"/>
							</g>
							<g>
								<path class="st11" d="M264,153.7l-1.8,1.6c-0.6-0.4-1.4-1.2-2.5-2.1c-8.6-7.2-30.2-24.5-21.6-29.5
									c7.4-4.2,15.2,8.7,19.1,12.7c0.8,0.8,3,3.3,4.7,6.5C263.8,146.2,265.2,150.2,264,153.7z"/>
							</g>
							<path class="st11" d="M262,141.3c-3.1,2.2-5.7,5.1-7.6,8.3c1.4,4.7,5,8.8,9.5,10.7c2.5-5.7,3.6-11.9,3.1-18.1
								C265.4,142,263.5,141.7,262,141.3z"/>
							<path class="st11" d="M214.5,122.7c-3.1,1-6.6,0.2-8.6,2.8c-2,2.6-2.6,5.9-2.6,9.2c0,4.5,1,8.9,2.1,13.3
								c1.2,5.3,2.5,10.6,3.7,16c0.8,3.6,0,20.5,0.9,20.8c0,0,28.3-0.6,35.4-1.5c0,0,0.6-17.4,1.2-23.3c0.1-1.3,2.1-6.9,2.4-8.3
								c1.1-6.6-1.1-11.3-3.3-17.5c0,0-5-10.1-7.4-10.4C233.8,123.3,223.1,120,214.5,122.7z"/>
							<path class="st11" d="M213.3,131.1c-0.1-0.6-5.1-10.7-9.9-3.6c-6.7,9.9-7.1,22.2-7.1,22.2s-4.1,12-1.2,14.7
								c2.9,2.6,6,4.3,8,2.8c2-1.5,3.3-4.5,3.3-4.5S215.1,141.4,213.3,131.1z"/>
							<g>
								<path class="st11" d="M213,119c-2.1,1.6-1.8,5.5,0.5,6.8c-0.6,2,0.1,4.4,1.7,5.8c1.6,1.4,4,1.8,6,1
									c-0.8,1.5,0.1,3.5,1.6,4.5c1.5,0.9,3.3,1.1,5,1.3c1.7,0.2,3.5,0.6,4.8,1.8c1.8-2.6,3.6-5.1,5.3-7.7c0.7-1,1.4-2.1,1.5-3.3
									c0.1-1.2-0.9-2.6-2.1-2.5c1.2-1.3,1.3-3.5,0.1-4.8c-1.2-1.3-3.5-1.5-4.8-0.4c0.2-1-0.4-2.1-1.2-2.7c-0.9-0.6-1.9-0.8-3-0.9
									L213,119z"/>
							</g>
							<path class="st20" d="M216.2,105.9c1.4,5.1,3.1,14.5-0.3,18.2c0,0,9.5,3.8,16.3,11.5c3.2-3.1,2.8-6.5,1.9-9
								c-0.7-2-2.4-3.4-4.3-4.2c-3.7-1.6-3.7-5.2-3.1-8.7L216.2,105.9z"/>
							<g>
								<path class="st23" d="M218.3,114.6l3.5,1c1.5,0.4,3.1,0.5,4.6,0.3l0,0c0,0.8-0.1,2.4,0.3,3.2c-2,1-5.4,0.3-6.9-1.5
									C219.2,116.9,218.6,115.5,218.3,114.6z"/>
								<g>
									<g>
										<path class="st20" d="M209.4,101.6c3.7,7.8,5.1,11.2,10.8,13.7c8.6,3.8,17.4-2.5,16.1-11.3c-1.2-7.9-7.1-19.4-16.2-19.5
											c-6.5-0.1-11.9,5.2-12,11.7C208.2,98.1,208.6,99.9,209.4,101.6z"/>
										<path class="st11" d="M213.5,86.6c-2.7-1.3-6.1-0.2-8.3,1.8c-2.3,2-3.7,4.8-5,7.6c-0.7,1.5-1.5,3-1.8,4.6
											c-0.3,1.6-0.2,3.4,0.6,4.8c0.8,1.4,2.4,2.3,4,2.4c0.9,0.1,2,0.7,2.3,1.6c0.3,0.8,0.1,1.7,0,2.6c-0.1,0.8-0.2,1.7,0,2.5
											c0.4,1.3,1.8,2.1,3.2,2.3c1.4,0.1,2.8-0.3,4.1-0.7c0.8-0.3,1.7-0.1,2.3,0.5c0.2,0.1,0.3,0.3,0.4,0.5
											c0.4,0.8,1.6,0.7,2-0.2c1.2-2.9-0.6-7.5-3.2-11c-1.4-1.9-1.3-1.4-1.9-3.6c-0.5-1.9,0.2-3.8,1.1-5.6
											c1.1-2.3,2.6-4.6,2.1-7.4C215.3,88.2,214.6,87.1,213.5,86.6z"/>
										<path class="st20" d="M209.6,109.6c1.2,1.3,2.9,2.1,4.7,2.1c2.4,0.1,3-2.2,1.8-4.2c-1-1.8-3.5-3.9-5.7-3
											C208.4,105.4,208.1,108,209.6,109.6z"/>
										<g>
											<path class="st11" d="M224.4,100.2c0.3,0.7,0.8,1.1,1.3,0.9c0.4-0.2,0.5-0.8,0.3-1.5c-0.2-0.7-0.8-1-1.3-0.9
												C224.2,98.9,224.1,99.5,224.4,100.2z"/>
											<path class="st11" d="M231.7,97c0.3,0.7,0.8,1.1,1.2,0.9c0.4-0.2,0.5-0.8,0.3-1.5c-0.2-0.7-0.8-1-1.2-0.9
												S231.4,96.4,231.7,97z"/>
											<path class="st11" d="M231.8,95.7l1.4-1.1C233.2,94.6,232.9,96.1,231.8,95.7z"/>
											<path class="st25" d="M229.8,98.5c1.7,1.7,3,2,4.8,3.1c-0.1,1.6-1.6,2-1.6,2L229.8,98.5z"/>
											<path class="st11" d="M232.2,106.9c0.3-0.1,0.6-0.3,0.9-0.4c0.1-0.1,0.1-0.2,0.1-0.3c0,0,0,0,0,0
												c-0.1-0.1-0.2-0.1-0.3-0.1c-1.6,0.9-3.4,1-5.1,0.3c-0.1-0.1-0.2,0-0.3,0.1c-0.1,0.1,0,0.2,0.1,0.3
												C229.1,107.4,230.7,107.4,232.2,106.9z"/>
											<path class="st11" d="M224.1,94.8c0,0.2-0.1,0.3-0.3,0.4c-1.9,0.6-2.8,3-2.8,3c-0.1,0.2-0.3,0.3-0.5,0.3
												c-0.2-0.1-0.3-0.3-0.3-0.5c0.1-0.1,1-2.9,3.3-3.6c0.2-0.1,0.5,0.1,0.5,0.3C224.1,94.7,224.1,94.7,224.1,94.8z"/>
											<path class="st11" d="M232.9,93.6c-0.2,0.1-0.4,0.1-0.5,0c-1.6-1.3-4-0.6-4.1-0.6c-0.2,0.1-0.5-0.1-0.5-0.3
												c-0.1-0.2,0.1-0.5,0.3-0.5c0.1,0,2.9-0.8,4.8,0.7c0.2,0.2,0.2,0.4,0.1,0.6C233,93.5,233,93.5,232.9,93.6z"/>
											<path class="st11" d="M224.5,98.8l1.4-1.1C225.9,97.7,225.6,99.3,224.5,98.8z"/>
										</g>
									</g>
									<path class="st11" d="M214.1,85.3c-2.2,0.2-4.3,1.4-5.4,3.3c-0.8,1.2-1.1,3.1,0.1,4c0.6,0.4,1.3,0.5,2,0.5
										c3,0.3,6.8-2.1,6.8-2.1c-1.2-5,9.3-8.8,14.4-1.1c1.5,2.3,1.1,3.9,3.6,4.9c1.2,0.5,2.7,0.4,3.5,1.4c1.3,1.7-1.2,4.6,0.4,6.1
										c1,1,3.4,0.6,3.6,2.1c0.1,0.7-0.4,1.7,0.3,1.9c0.4,0.1,0.7-0.2,0.9-0.5c0.6-0.7,1.1-1.5,1.3-2.4c0.2-0.9-0.1-2-1-2.3
										c-0.6-0.3-2.3,0-2.2,0.7c0.1,0.8-0.6-3.3-0.3-4.8c0.3-1.3,1.6-2.5,1.2-3.8c-0.4-1.4-2.1-2-3.5-2.2c-1.4-0.2-3.1-0.4-4-1.6
										c-1-1.3-0.5-3.2-0.9-4.8c-0.4-2-2.1-3.6-4-4.5C225,77.7,216.1,78,214.1,85.3z"/>
								</g>
							</g>
							<g>
								<g>
									<g>
										<path class="st12" d="M230.6,112l-20,10c-6.6,3.3-9.5,11.1-6.9,17.9l9.6,24.6c2.7,6.8,10.1,10.5,17.2,8.5l21.5-6.2
											c8.1-2.3,12.4-11.1,9.3-18.9l-11.2-28.4C247.2,111.7,238,108.2,230.6,112z M227.2,154.2c-4.5,1.7-9.5-0.5-11.2-4.9
											c-1.7-4.5,0.5-9.5,4.9-11.2c4.5-1.7,9.5,0.5,11.2,4.9C233.9,147.4,231.7,152.5,227.2,154.2z"/>
										<path class="st12" d="M230.6,112l-20,10c-6.6,3.3-9.5,11.1-6.9,17.9l9.6,24.6c2.7,6.8,10.1,10.5,17.2,8.5l21.5-6.2
											c8.1-2.3,12.4-11.1,9.3-18.9l-11.2-28.4C247.2,111.7,238,108.2,230.6,112z M227.2,154.2c-4.5,1.7-9.5-0.5-11.2-4.9
											c-1.7-4.5,0.5-9.5,4.9-11.2c4.5-1.7,9.5,0.5,11.2,4.9C233.9,147.4,231.7,152.5,227.2,154.2z"/>
										<path class="st26" d="M261.4,148l-11.2-28.4c-3.1-7.8-12.2-11.3-19.7-7.5l-5.8,2.9l-3.9,2l-10.3,5.2
											c-6.6,3.3-9.6,11.1-6.9,17.9l9.6,24.6c2.7,6.9,10.2,10.5,17.2,8.5l21.5-6.2c1.8-0.5,3.3-1.3,4.7-2.4
											c1.1-0.8,2-1.7,2.8-2.8C262.4,157.9,263.2,152.7,261.4,148z M227.2,154.2c-4.5,1.7-9.5-0.5-11.2-4.9
											c-1.7-4.5,0.5-9.5,4.9-11.2c4.5-1.7,9.5,0.5,11.2,4.9C233.9,147.4,231.7,152.5,227.2,154.2z"/>
										<path class="st12" d="M230.8,113.9l-18.8,9.4c-6.2,3.1-9,10.4-6.4,16.8l9,23.1c2.5,6.4,9.5,9.9,16.1,8l20.2-5.8
											c7.6-2.2,11.6-10.4,8.7-17.7l-10.5-26.7C246.3,113.6,237.8,110.3,230.8,113.9z M216,149.3c-1.7-4.5,0.5-9.5,4.9-11.2
											c4.5-1.7,9.5,0.5,11.2,4.9c1.7,4.5-0.4,9.5-4.9,11.2C222.8,156,217.8,153.8,216,149.3z"/>
										<path class="st26" d="M230.8,113.9l-18.8,9.4c-6.2,3.1-9,10.4-6.4,16.8l9,23.1c2.5,6.4,9.5,9.9,16.1,8l20.2-5.8
											c7.6-2.2,11.6-10.4,8.7-17.7l-10.5-26.7C246.3,113.6,237.8,110.3,230.8,113.9z M216,149.3c-1.7-4.5,0.5-9.5,4.9-11.2
											c4.5-1.7,9.5,0.5,11.2,4.9c1.7,4.5-0.4,9.5-4.9,11.2C222.8,156,217.8,153.8,216,149.3z"/>
										<g>
											<path class="st12" d="M323.9,105l-0.6,1l-0.3,0.6l-0.9,1.7l0.4,4.2c0,0.2,0,0.4-0.1,0.5c-0.1,0.4-0.4,0.7-0.8,0.8
												l-7.9,3.1c-0.4,0.1-0.8,0.1-1.1-0.1c-0.1-0.1-0.2-0.1-0.3-0.2l-4.5-4.5l0,0l-6.4,2.5l0.9,2.3l-6.4,2.5l1.5,3.9l-4.7,1.8
												c-0.4,0.1-0.8,0.1-1.2-0.1c-0.1-0.1-0.2-0.1-0.3-0.2l-2.7-2.5l-6.4,2.5l1.5,3.9l-6.7,2.6l1.5,3.9
												c0.2,0.6-0.1,1.3-0.7,1.6l-18.3,7.2l-7.9-20.2L318,97.7l1,0.5l3.4,1.7C324.2,100.9,324.9,103.2,323.9,105z"/>
										</g>
										<g class="st27">
											<path class="st12" d="M323.9,105l-0.6,1l-0.3,0.6l-0.9,1.7l0.4,4.2c0,0.2,0,0.4-0.1,0.5c-0.1,0.4-0.4,0.7-0.8,0.8
												l-7.9,3.1c-0.4,0.1-0.8,0.1-1.1-0.1c-0.1-0.1-0.2-0.1-0.3-0.2l-4.5-4.5l0,0l-6.4,2.5l0.9,2.3l-6.4,2.5l1.5,3.9l-4.7,1.8
												c-0.4,0.1-0.8,0.1-1.2-0.1c-0.1-0.1-0.2-0.1-0.3-0.2l-2.7-2.5l-6.4,2.5l1.5,3.9l-6.7,2.6l1.5,3.9
												c0.2,0.6-0.1,1.3-0.7,1.6l-18.3,7.2l-7.9-20.2L318,97.7l1,0.5l3.4,1.7C324.2,100.9,324.9,103.2,323.9,105z"/>
										</g>
									</g>
									<path class="st12" d="M323.7,102.7l-70.8,27.7l-2.1-5.2l67.5-26.4l3.4,1.7C323,101.1,323.7,101.7,323.7,102.7z"/>
									<path class="st26" d="M323.7,102.7l-70.8,27.7l-2.1-5.2l67.5-26.4l3.4,1.7C323,101.1,323.7,101.7,323.7,102.7z"/>
									<path class="st12" d="M322.3,106.6l-0.7,1.5c0,0,0,0.1,0,0.1l0.4,4.2c0,0.2,0,0.3,0,0.4c0,0,0,0.1-0.1,0.1l-8.6,3.4
										c0,0-0.1,0-0.1,0c-0.1-0.1-0.2-0.1-0.2-0.2l-4.9-4.9c0,0-0.1-0.1-0.2,0l-7,2.7c-0.1,0-0.1,0.1-0.1,0.2l0.8,2.1
										c0,0.1,0,0.2-0.1,0.2l-5.9,2.3c-0.1,0-0.1,0.1-0.1,0.2l1.4,3.6c0,0.1,0,0.2-0.1,0.2l-4.4,1.7c0,0-0.1,0-0.1,0
										c-0.1-0.1-0.2-0.1-0.3-0.2l-3.2-2.9c0,0-0.1-0.1-0.2,0l-6.9,2.7c-0.1,0-0.1,0.1-0.1,0.2l1.5,3.7c0,0.1,0,0.2-0.1,0.2
										l-26.6,10.5c-0.1,0-0.2,0-0.2-0.1l-2.7-6.7c0-0.1,0-0.2,0.1-0.2l69.3-27.3c0.1-0.1,0.3,0.1,0.2,0.2L322.3,106.6z"/>
									<path class="st26" d="M322.3,106.6l-0.7,1.5c0,0,0,0.1,0,0.1l0.4,4.2c0,0.2,0,0.3,0,0.4c0,0,0,0.1-0.1,0.1l-8.6,3.4
										c0,0-0.1,0-0.1,0c-0.1-0.1-0.2-0.1-0.2-0.2l-4.9-4.9c0,0-0.1-0.1-0.2,0l-7,2.7c-0.1,0-0.1,0.1-0.1,0.2l0.8,2.1
										c0,0.1,0,0.2-0.1,0.2l-5.9,2.3c-0.1,0-0.1,0.1-0.1,0.2l1.4,3.6c0,0.1,0,0.2-0.1,0.2l-4.4,1.7c0,0-0.1,0-0.1,0
										c-0.1-0.1-0.2-0.1-0.3-0.2l-3.2-2.9c0,0-0.1-0.1-0.2,0l-6.9,2.7c-0.1,0-0.1,0.1-0.1,0.2l1.5,3.7c0,0.1,0,0.2-0.1,0.2
										l-26.6,10.5c-0.1,0-0.2,0-0.2-0.1l-2.7-6.7c0-0.1,0-0.2,0.1-0.2l69.3-27.3c0.1-0.1,0.3,0.1,0.2,0.2L322.3,106.6z"/>
									<line class="st26" x1="283" y1="128.2" x2="256.4" y2="138.7"/>
								</g>
								<path class="st22" d="M220.4,135.9c-5.6,2.2-8.3,8.5-6.2,14.1c2.2,5.6,8.5,8.3,14.1,6.2c5.6-2.2,8.3-8.5,6.2-14.1
									C232.3,136.5,226,133.7,220.4,135.9z M227.2,154.2c-4.5,1.7-9.5-0.5-11.2-4.9c-1.7-4.5,0.5-9.5,4.9-11.2
									c4.5-1.7,9.5,0.5,11.2,4.9C233.9,147.4,231.7,152.5,227.2,154.2z"/>
							</g>
							<g>
								<path class="st28" d="M259.5,161.6c-0.8,1.1-1.7,2-2.8,2.8l-35.9-47.6l0,0c0,0,3.2-1.6,3.9-2.1c0,0,0,0.1,0,0.1
									C226.3,118.3,254.6,154.9,259.5,161.6z"/>
								<path class="st28" d="M254.3,165.9c-0.2,0.1-10.7,3.3-10.7,3.3L232,153.8c3-3,4.1-7.5,2.5-11.7c-2.2-5.6-8.5-8.4-14.1-6.2
									c-0.5,0.2-1,0.4-1.4,0.7l-10.3-13.7c0,0,9.1-4.3,10.1-5C219,119.9,254.3,165.5,254.3,165.9z"/>
							</g>
						</g>
					</g>
					<path class="st11" d="M211.5,90.9c-1.2,1.4-1.6,3.3-1.3,5.1c0.4,1.8,1.6,3.3,3.3,4.1c0.9,0.4,1.8,0.6,2.6,1
						c0.8,0.4,1.6,1.1,1.7,2.1c0.1,1-0.7,2-0.6,3c0.1,0.9,0.8,1.7,1.6,2.3c0.8,0.6,1.6,1.1,2,2c0.4,0.9,0.1,2.1-0.8,2.4
						c-0.2,0.3-0.3,1,0,1.3c0.2,0.3,0.7,0.3,1,0.1c1.4-0.9,2.4-2.5,2.4-4.2c0-1.7-1-3.3-2.5-4c-0.3-0.6-0.1-1.2,0.2-1.8
						c0.5-1.1,0.9-2.3,1.4-3.4c0.2-0.4,0-1.3-0.3-1.6c-0.3-0.4-0.8-0.6-1.2-0.8l-2.9-1.3c-1.1-0.5-4.4-4.9-0.5-6.2
						c-0.5-1.1-1.4-1.5-2.6-1.7S212.3,89.9,211.5,90.9z"/>
				</g>
				<g>
					<path class="st11" d="M216.9,86.1c-0.1,1.2-0.2,2.3-0.3,3.5c1-1.6,2.8-4.7,2.7-4.6C218.5,85.4,217.6,85.7,216.9,86.1z"/>
				</g>
				<g>
					<path class="st11" d="M218.2,88c1.4-1.3,2.7-2.5,4.1-3.8c-1.1-0.4-2.3-0.1-3.1,0.7C219.2,84.9,218.6,86.8,218.2,88z"/>
				</g>
			</g>
			<path class="st11" d="M209.9,182.6c-5.3,6.6-3.6,11.7-10.9,23.4c9.3,6.9,19.5,8,32.1,7c1.5-2.6,2.3-5.4,3.7-8.1
				c2.1,2.7,3.9,4.9,6,7.6c6.6-1,14.5-2.9,19.8-6.3c-4.6-5.3-7.5-11.9-10.5-17.8c-1.4-2.7-0.8-3.9-4.5-7.5
				c-11.7,0.5-23.4,0.8-35.1,1.4C210.8,182.4,209.5,182.6,209.9,182.6z"/>
			<g>
				<g>
					<path class="st16" d="M211.3,181.5l-0.7,3.1c-0.1,0.2,0.2,0.5,0.6,0.5l32.4-1.4c0.3,0,0.6-0.2,0.6-0.4l0.2-3.1
						c0-0.2-0.3-0.4-0.6-0.4l-31.8,1.4C211.6,181.2,211.4,181.4,211.3,181.5z"/>
					<path class="st16" d="M211.3,181.5l-0.7,3.1c-0.1,0.2,0.2,0.5,0.6,0.5l32.4-1.4c0.3,0,0.6-0.2,0.6-0.4l0.2-3.1
						c0-0.2-0.3-0.4-0.6-0.4l-31.8,1.4C211.6,181.2,211.4,181.4,211.3,181.5z"/>
				</g>
				<g>
					<path class="st11" d="M218.4,185.1l-0.9,0c-0.2,0-0.3-0.1-0.3-0.2l0.3-4c0-0.1,0.2-0.2,0.4-0.2l0.9-0.1c0.2,0,0.3,0.1,0.3,0.2
						l-0.3,4C218.8,185,218.6,185.1,218.4,185.1z"/>
					<path class="st11" d="M241.8,184.1l-0.9,0c-0.2,0-0.3-0.1-0.3-0.2l0.3-4c0-0.1,0.2-0.2,0.3-0.2l0.9,0c0.2,0,0.3,0.1,0.3,0.2
						l-0.3,4C242.2,184,242,184.1,241.8,184.1z"/>
				</g>
			</g>
		</g>
		<g>
			<g>
				<g>
					<path class="st20" d="M222.6,165.7c0.1,0.3,2.6,4.3,4.5,4c0,0,0,0,0,0c0.6-0.1,1.1,0.2,1.5,0.6c0.8,1,1.3,1.6,1.8,2.3
						c0.9,1.1,2.4,1.5,3.6,0.9c0.4-0.2,0.7-0.4,1.1-0.6c1.2-0.6,1.8-2,1.5-3.4c-0.4-1.5-0.9-2.9-1.7-4.2c-0.3-0.4-0.6-0.9-1-1.2
						c-0.4-0.3-4.8-1.6-6.5-1.5C225.9,162.7,224.2,165,222.6,165.7z"/>
				</g>
				<g>
					<path class="st20" d="M227.7,162.5c0,0-26.6-8-32.3-2.7c-3.4,3.2-1.8,6.1,0.1,8c1.4,1.4,4.5,1.1,6.5,1l20.9-2.1L227.7,162.5z"
						/>
				</g>
			</g>
			<path class="st11" d="M212.4,158.8c-0.1-1.4-1.3-2.6-2.6-3.3c-1.3-0.6-2.8-0.8-4.2-1c-3.3-0.4-6.7-0.8-10-1.3
				c-1.7,2.1-2.9,5.1-2.9,7.8c0.1,2.7,1.1,5.4,2.9,7.5c1.6-3.1,3.7-6.3,6.8-7.8C205.6,159.2,209,158.2,212.4,158.8z"/>
		</g>
	</g>
	<path class="st28" d="M205.6,110.2C205.5,110.2,205.5,110.2,205.6,110.2C205.8,110.1,205.7,110.1,205.6,110.2z"/>
</g>
<g id="Speech_Bubble">
	<g>
		<path class="st15" d="M271.6,67.2l7.4,13.7l30.2-25.7c0.3-0.2,0-0.6-0.3-0.4l-28.3,18.7l-4.4-8.5L271.6,67.2z"/>
		<path class="st29" d="M319.3,67.3c0,12.2-12.8,22.2-28.7,22.2c-6.1,0-11.7-1.5-16.4-4l-16.8,7.3L268,80.9
			c-3.8-3.8-6.1-8.5-6.1-13.7c0-12.2,12.8-22.2,28.7-22.2C306.4,45.1,319.3,55,319.3,67.3z"/>
	</g>
</g>
</svg>
