<?xml version="1.0" encoding="UTF-8" ?>
<!DOCTYPE svg PUBLIC "-//W3C//DTD SVG 1.1//EN" "http://www.w3.org/Graphics/SVG/1.1/DTD/svg11.dtd">
<svg width="468pt" height="376pt" viewBox="0 0 468 376" version="1.1" xmlns="http://www.w3.org/2000/svg">
<g id="#ffffffff">
</g>
<g id="#000000ff">
<path fill="#ffffff" opacity="1.00" d=" M 205.78 94.93 C 217.74 90.64 231.37 91.54 242.73 97.21 C 255.47 103.67 265.01 116.26 267.35 130.40 C 270.18 143.38 264.66 156.29 258.36 167.36 C 249.50 182.11 239.44 196.15 228.08 209.07 C 225.87 211.56 223.94 214.35 221.25 216.37 C 211.68 205.63 202.47 194.55 194.43 182.61 C 185.30 169.16 175.69 154.75 174.77 138.00 C 175.31 130.83 176.66 123.54 180.08 117.13 C 185.55 106.95 194.76 98.64 205.78 94.93 M 217.35 120.50 C 209.37 122.35 204.06 131.08 206.01 139.04 C 207.43 147.51 216.72 153.14 224.96 151.15 C 234.00 149.63 240.00 138.88 236.47 130.41 C 234.00 122.76 225.00 118.27 217.35 120.50 Z" />
<path fill="#ffffff" opacity="1.00" d=" M 318.50 148.53 C 323.48 146.47 328.42 144.22 333.62 142.75 C 333.64 184.12 333.47 225.50 333.71 266.87 C 313.00 275.05 292.45 283.60 271.65 291.53 C 271.33 252.34 271.62 213.15 271.50 173.96 C 271.42 170.84 272.44 166.71 275.78 165.68 C 290.03 159.99 304.22 154.16 318.50 148.53 Z" />
<path fill="#ffffff" opacity="1.00" d=" M 156.37 148.36 C 157.79 147.76 159.29 147.32 160.80 146.96 C 163.59 155.36 167.55 163.29 171.36 171.25 C 171.70 203.02 171.40 234.83 171.52 266.61 C 150.94 275.30 129.93 282.97 109.44 291.82 C 108.93 250.28 109.45 208.70 109.18 167.15 C 124.92 160.93 140.65 154.65 156.37 148.36 Z" />
<path fill="#ffffff" opacity="1.00" d=" M 184.38 191.78 C 185.58 193.20 186.73 194.66 187.78 196.20 C 195.17 206.96 203.40 217.12 211.91 227.01 C 215.12 230.71 217.94 234.83 221.88 237.83 C 231.98 225.92 242.37 214.22 251.45 201.50 C 253.79 198.37 255.91 195.09 258.36 192.05 C 258.97 196.34 258.73 200.68 258.76 205.00 C 258.77 232.34 258.74 259.68 258.78 287.02 C 258.77 288.58 258.62 290.14 258.38 291.68 C 233.77 283.31 209.10 275.05 184.37 267.03 C 184.43 241.95 184.40 216.86 184.38 191.78 Z" />
</g>
</svg>
